<svg class="main-svg" xmlns="http://www.w3.org/2000/svg" xmlns:xlink="http://www.w3.org/1999/xlink" width="800" height="600" style="" viewBox="0 0 800 600"><rect x="0" y="0" width="800" height="600" style="fill: rgb(255, 255, 255); fill-opacity: 1;"/><defs id="defs-2086af"><g class="clips"/><g class="gradients"/></defs><g class="bglayer"/><g class="layer-below"><g class="imagelayer"/><g class="shapelayer"/></g><g class="cartesianlayer"/><g class="polarlayer"/><g class="ternarylayer"/><g class="geolayer"/><g class="funnelarealayer"/><g class="pielayer"/><g class="treemaplayer"/><g class="sunburstlayer"/><g class="glimages"/><g class="sankey" transform="translate(80,100)matrix(1 0 0 1 0 0)" style="box-sizing: content-box; position: absolute; left: 0px; shape-rendering: geometricprecision; pointer-events: auto;"><g class="sankey-links" style="fill: none;"><path class="sankey-link" d="M20,9.007890313449742C87.5,9.007890313449742 87.5,10.553064092027952 155,10.553064092027952L155,93.0974427902528C87.5,93.0974427902528 87.5,91.55226901167458 20,91.55226901167458Z" style="stroke: rgb(68, 68, 68); stroke-opacity: 1; fill: rgb(0, 0, 0); fill-opacity: 0.2; stroke-width: 0; opacity: 1;"/><path class="sankey-link" d="M20,96.87771279865683C87.5,96.87771279865683 87.5,128.42288657723515 155,128.42288657723515L155,132.41696941747182C87.5,132.41696941747182 87.5,100.8717956388935 20,100.8717956388935Z" style="stroke: rgb(68, 68, 68); stroke-opacity: 1; fill: rgb(0, 0, 0); fill-opacity: 0.2; stroke-width: 0; opacity: 1;"/><path class="sankey-link" d="M20,91.55226901167458C87.5,91.55226901167458 87.5,108.09744279025287 155,108.09744279025287L155,113.42288657723512C87.5,113.42288657723512 87.5,96.87771279865683 20,96.87771279865683Z" style="stroke: rgb(68, 68, 68); stroke-opacity: 1; fill: rgb(0, 0, 0); fill-opacity: 0.2; stroke-width: 0; opacity: 1;"/><path class="sankey-link" d="M175,10.553064092027952C397.5,10.553064092027952 397.5,2.2737367544323206e-13 620,2.2737367544323206e-13L620,67.89940828402389C397.5,67.89940828402389 397.5,78.45247237605162 175,78.45247237605162Z" style="stroke: rgb(68, 68, 68); stroke-opacity: 1; fill: rgb(0, 0, 0); fill-opacity: 0.2; stroke-width: 0; opacity: 1;"/><path class="sankey-link" d="M175,78.45247237605162C397.5,78.45247237605162 397.5,82.89940828402388 620,82.89940828402388L620,97.54437869822505C397.5,97.54437869822505 397.5,93.09744279025279 175,93.09744279025279Z" style="stroke: rgb(68, 68, 68); stroke-opacity: 1; fill: rgb(0, 0, 0); fill-opacity: 0.2; stroke-width: 0; opacity: 1;"/><path class="sankey-link" d="M175,133.7483303642174C397.5,133.7483303642174 397.5,165.53254437869847 620,165.53254437869847L620,166.86390532544405C397.5,166.86390532544405 397.5,135.07969131096297 175,135.07969131096297Z" style="stroke: rgb(68, 68, 68); stroke-opacity: 1; fill: rgb(0, 0, 0); fill-opacity: 0.2; stroke-width: 0; opacity: 1;"/><path class="sankey-link" d="M175,128.42288657723515C397.5,128.42288657723515 397.5,115.20710059171617 620,115.20710059171617L620,116.53846153846175C397.5,116.53846153846175 397.5,129.75424752398072 175,129.75424752398072Z" style="stroke: rgb(68, 68, 68); stroke-opacity: 1; fill: rgb(0, 0, 0); fill-opacity: 0.2; stroke-width: 0; opacity: 1;"/><path class="sankey-link" d="M175,132.41696941747185C397.5,132.41696941747185 397.5,149.20118343195293 620,149.20118343195293L620,150.5325443786985C397.5,150.5325443786985 397.5,133.74833036421742 175,133.74833036421742Z" style="stroke: rgb(68, 68, 68); stroke-opacity: 1; fill: rgb(0, 0, 0); fill-opacity: 0.2; stroke-width: 0; opacity: 1;"/><path class="sankey-link" d="M175,129.75424752398072C397.5,129.75424752398072 397.5,131.53846153846177 620,131.53846153846177L620,134.20118343195293C397.5,134.20118343195293 397.5,132.41696941747188 175,132.41696941747188Z" style="stroke: rgb(68, 68, 68); stroke-opacity: 1; fill: rgb(0, 0, 0); fill-opacity: 0.2; stroke-width: 0; opacity: 1;"/><path class="sankey-link" d="M175,135.07969131096297C397.5,135.07969131096297 397.5,181.86390532544405 620,181.86390532544405L620,183.19526627218963C397.5,183.19526627218963 397.5,136.41105225770855 175,136.41105225770855Z" style="stroke: rgb(68, 68, 68); stroke-opacity: 1; fill: rgb(0, 0, 0); fill-opacity: 0.2; stroke-width: 0; opacity: 1;"/><path class="sankey-link" d="M175,108.09744279025287C397.5,108.09744279025287 397.5,112.54437869822506 620,112.54437869822506L620,115.20710059171618C397.5,115.20710059171618 397.5,110.760164683744 175,110.760164683744Z" style="stroke: rgb(68, 68, 68); stroke-opacity: 1; fill: rgb(0, 0, 0); fill-opacity: 0.2; stroke-width: 0; opacity: 1;"/><path class="sankey-link" d="M20,234.46519688474316C87.5,234.46519688474316 87.5,242.9342316638711 155,242.9342316638711L155,290.86322574671135C87.5,290.86322574671135 87.5,282.3941909675834 20,282.3941909675834Z" style="stroke: rgb(68, 68, 68); stroke-opacity: 1; fill: rgb(0, 0, 0); fill-opacity: 0.2; stroke-width: 0; opacity: 1;"/><path class="sankey-link" d="M20,282.3941909675834C87.5,282.3941909675834 87.5,305.86322574671146 155,305.86322574671146L155,340.4786103620961C87.5,340.4786103620961 87.5,317.00957558296807 20,317.00957558296807Z" style="stroke: rgb(68, 68, 68); stroke-opacity: 1; fill: rgb(0, 0, 0); fill-opacity: 0.2; stroke-width: 0; opacity: 1;"/><path class="sankey-link" d="M20,317.00957558296807C87.5,317.00957558296807 87.5,390.09399497748086 155,390.09399497748086L155,396.75079971120863C87.5,396.75079971120863 87.5,323.66638031669584 20,323.66638031669584Z" style="stroke: rgb(68, 68, 68); stroke-opacity: 1; fill: rgb(0, 0, 0); fill-opacity: 0.2; stroke-width: 0; opacity: 1;"/><path class="sankey-link" d="M175,242.9342316638711C397.5,242.9342316638711 397.5,198.19526627218957 620,198.19526627218957L620,246.1242603550298C397.5,246.1242603550298 397.5,290.86322574671135 175,290.86322574671135Z" style="stroke: rgb(68, 68, 68); stroke-opacity: 1; fill: rgb(0, 0, 0); fill-opacity: 0.2; stroke-width: 0; opacity: 1;"/><path class="sankey-link" d="M175,305.86322574671146C397.5,305.86322574671146 397.5,246.1242603550298 620,246.1242603550298L620,274.0828402366866C397.5,274.0828402366866 397.5,333.8218056283682 175,333.8218056283682Z" style="stroke: rgb(68, 68, 68); stroke-opacity: 1; fill: rgb(0, 0, 0); fill-opacity: 0.2; stroke-width: 0; opacity: 1;"/><path class="sankey-link" d="M175,367.10582929700735C242.5,367.10582929700735 242.5,320.0493398528839 310,320.0493398528839L310,326.7061445866117C242.5,326.7061445866117 242.5,373.7626340307351 175,373.7626340307351Z" style="stroke: rgb(68, 68, 68); stroke-opacity: 1; fill: rgb(0, 0, 0); fill-opacity: 0.2; stroke-width: 0; opacity: 1;"/><path class="sankey-link" d="M175,395.4194387644631C242.5,395.4194387644631 242.5,326.70614458661174 310,326.70614458661174L310,333.3629493203395C242.5,333.3629493203395 242.5,402.0762434981909 175,402.0762434981909Z" style="stroke: rgb(68, 68, 68); stroke-opacity: 1; fill: rgb(0, 0, 0); fill-opacity: 0.2; stroke-width: 0; opacity: 1;"/><path class="sankey-link" d="M175,333.8218056283683C397.5,333.8218056283683 397.5,289.08284023668637 620,289.08284023668637L620,322.36686390532543C397.5,322.36686390532543 397.5,367.10582929700735 175,367.10582929700735Z" style="stroke: rgb(68, 68, 68); stroke-opacity: 1; fill: rgb(0, 0, 0); fill-opacity: 0.2; stroke-width: 0; opacity: 1;"/><path class="sankey-link" d="M175,373.76263403073517C397.5,373.76263403073517 397.5,342.6923076923076 620,342.6923076923076L620,344.0236686390532C397.5,344.0236686390532 397.5,375.09399497748075 175,375.09399497748075Z" style="stroke: rgb(68, 68, 68); stroke-opacity: 1; fill: rgb(0, 0, 0); fill-opacity: 0.2; stroke-width: 0; opacity: 1;"/><path class="sankey-link" d="M175,390.09399497748086C397.5,390.09399497748086 397.5,322.36686390532543 620,322.36686390532543L620,327.69230769230774C397.5,327.69230769230774 397.5,395.41943876446317 175,395.41943876446317Z" style="stroke: rgb(68, 68, 68); stroke-opacity: 1; fill: rgb(0, 0, 0); fill-opacity: 0.2; stroke-width: 0; opacity: 1;"/><path class="sankey-link" d="M175,402.07624349819093C397.5,402.07624349819093 397.5,344.0236686390532 620,344.0236686390532L620,345.3550295857988C397.5,345.3550295857988 397.5,403.4076044449365 175,403.4076044449365Z" style="stroke: rgb(68, 68, 68); stroke-opacity: 1; fill: rgb(0, 0, 0); fill-opacity: 0.2; stroke-width: 0; opacity: 1;"/><path class="sankey-link" d="M330,320.0493398528839C397.5,320.0493398528839 397.5,346.1622246923897 465,346.1622246923897L465,351.487668479372C397.5,351.487668479372 397.5,325.3747836398662 330,325.3747836398662Z" style="stroke: rgb(68, 68, 68); stroke-opacity: 1; fill: rgb(0, 0, 0); fill-opacity: 0.2; stroke-width: 0; opacity: 1;"/><path class="sankey-link" d="M330,325.37478363986617C475,325.37478363986617 475,360.3550295857988 620,360.3550295857988L620,364.3491124260355C475,364.3491124260355 475,329.3688664801029 330,329.3688664801029Z" style="stroke: rgb(68, 68, 68); stroke-opacity: 1; fill: rgb(0, 0, 0); fill-opacity: 0.2; stroke-width: 0; opacity: 1;"/><path class="sankey-link" d="M330,329.36886648010284C475,329.36886648010284 475,379.3491124260355 620,379.3491124260355L620,383.34319526627223C475,383.34319526627223 475,333.36294932033957 330,333.36294932033957Z" style="stroke: rgb(68, 68, 68); stroke-opacity: 1; fill: rgb(0, 0, 0); fill-opacity: 0.2; stroke-width: 0; opacity: 1;"/><path class="sankey-link" d="M485,346.1622246923897C552.5,346.1622246923897 552.5,398.34319526627223 620,398.34319526627223L620,402.33727810650896C552.5,402.33727810650896 552.5,350.15630753262644 485,350.15630753262644Z" style="stroke: rgb(68, 68, 68); stroke-opacity: 1; fill: rgb(0, 0, 0); fill-opacity: 0.2; stroke-width: 0; opacity: 1;"/><path class="sankey-link" d="M485,350.1563075326264C552.5,350.1563075326264 552.5,417.33727810650896 620,417.33727810650896L620,420.0000000000001C552.5,420.0000000000001 552.5,352.81902942611754 485,352.81902942611754Z" style="stroke: rgb(68, 68, 68); stroke-opacity: 1; fill: rgb(0, 0, 0); fill-opacity: 0.2; stroke-width: 0; opacity: 1;"/></g><g class="sankey-node-set" style="cursor: move;"><g class="sankey-node" transform="translate(155.000, 10.553)" style="opacity: 1;"><rect class="node-rect" width="20" height="82.54437869822492" style="stroke-width: 0.5; stroke: rgb(0, 0, 0); stroke-opacity: 1; fill: rgb(0, 0, 255); fill-opacity: 1;"/><rect class="node-capture" x="-10" y="-7.5" width="40" height="97.54437869822492" style="fill-opacity: 0;"/><g class="node-entered" transform="translate(0 42.27218934911246)"><path class="node-label-guide" id="552508_0_node_0" d="M24,0L640,0" transform="matrix(1 0 0 1 0 0)"/><text class="node-label" transform="scale(1 1)" style="user-select: none; cursor: default; fill: rgb(42, 63, 95); text-shadow: rgb(255, 255, 255) -1px 1px 1px, rgb(255, 255, 255) 1px 1px 1px, rgb(255, 255, 255) 1px -1px 1px, rgb(255, 255, 255) -1px -1px 1px; font-family: 'Open Sans', verdana, arial, sans-serif; font-size: 12px; fill-opacity: 1;"><textPath class="node-label-text-path" alignment-baseline="middle" xlink:href="#552508_0_node_0" startOffset="0%" text-anchor="start" style="fill: rgb(0, 0, 0);">Alone</textPath></text></g></g><g class="sankey-node" transform="translate(155.000, 128.423)" style="opacity: 1;"><rect class="node-rect" width="20" height="7.988165680473401" style="stroke-width: 0.5; stroke: rgb(0, 0, 0); stroke-opacity: 1; fill: rgb(0, 0, 255); fill-opacity: 1;"/><rect class="node-capture" x="-10" y="-7.5" width="40" height="22.9881656804734" style="fill-opacity: 0;"/><g class="node-entered" transform="translate(0 4.9940828402367)"><path class="node-label-guide" id="552508_0_node_1" d="M24,0L640,0" transform="matrix(1 0 0 1 0 0)"/><text class="node-label" transform="scale(1 1)" style="user-select: none; cursor: default; fill: rgb(42, 63, 95); text-shadow: rgb(255, 255, 255) -1px 1px 1px, rgb(255, 255, 255) 1px 1px 1px, rgb(255, 255, 255) 1px -1px 1px, rgb(255, 255, 255) -1px -1px 1px; font-family: 'Open Sans', verdana, arial, sans-serif; font-size: 12px; fill-opacity: 1;"><textPath class="node-label-text-path" alignment-baseline="middle" xlink:href="#552508_0_node_1" startOffset="0%" text-anchor="start" style="fill: rgb(0, 0, 0);">Group</textPath></text></g></g><g class="sankey-node" transform="translate(155.000, 108.097)" style="opacity: 1;"><rect class="node-rect" width="20" height="5.325443786982277" style="stroke-width: 0.5; stroke: rgb(0, 0, 0); stroke-opacity: 1; fill: rgb(0, 0, 255); fill-opacity: 1;"/><rect class="node-capture" x="-10" y="-7.5" width="40" height="20.325443786982277" style="fill-opacity: 0;"/><g class="node-entered" transform="translate(0 3.6627218934911383)"><path class="node-label-guide" id="552508_0_node_2" d="M24,0L640,0" transform="matrix(1 0 0 1 0 0)"/><text class="node-label" transform="scale(1 1)" style="user-select: none; cursor: default; fill: rgb(42, 63, 95); text-shadow: rgb(255, 255, 255) -1px 1px 1px, rgb(255, 255, 255) 1px 1px 1px, rgb(255, 255, 255) 1px -1px 1px, rgb(255, 255, 255) -1px -1px 1px; font-family: 'Open Sans', verdana, arial, sans-serif; font-size: 12px; fill-opacity: 1;"><textPath class="node-label-text-path" alignment-baseline="middle" xlink:href="#552508_0_node_2" startOffset="0%" text-anchor="start" style="fill: rgb(0, 0, 0);">Online</textPath></text></g></g><g class="sankey-node" transform="translate(620.000, 0.000)" style="opacity: 1;"><rect class="node-rect" width="20" height="67.89940828402365" style="stroke-width: 0.5; stroke: rgb(0, 0, 0); stroke-opacity: 1; fill: rgb(0, 0, 255); fill-opacity: 1;"/><rect class="node-capture" x="-10" y="-7.5" width="40" height="82.89940828402365" style="fill-opacity: 0;"/><g class="node-entered" transform="translate(0 34.949704142011825)"><path class="node-label-guide" id="552508_0_node_3" d="M-640,0L-4,0" transform="matrix(1 0 0 1 0 0)"/><text class="node-label" transform="scale(1 1)" style="user-select: none; cursor: default; fill: rgb(42, 63, 95); text-shadow: rgb(255, 255, 255) -1px 1px 1px, rgb(255, 255, 255) 1px 1px 1px, rgb(255, 255, 255) 1px -1px 1px, rgb(255, 255, 255) -1px -1px 1px; font-family: 'Open Sans', verdana, arial, sans-serif; font-size: 12px; fill-opacity: 1;"><textPath class="node-label-text-path" alignment-baseline="middle" xlink:href="#552508_0_node_3" startOffset="100%" text-anchor="end" style="fill: rgb(0, 0, 0);">Focus</textPath></text></g></g><g class="sankey-node" transform="translate(620.000, 82.899)" style="opacity: 1;"><rect class="node-rect" width="20" height="14.644970414201183" style="stroke-width: 0.5; stroke: rgb(0, 0, 0); stroke-opacity: 1; fill: rgb(0, 0, 255); fill-opacity: 1;"/><rect class="node-capture" x="-10" y="-7.5" width="40" height="29.644970414201183" style="fill-opacity: 0;"/><g class="node-entered" transform="translate(0 8.322485207100591)"><path class="node-label-guide" id="552508_0_node_4" d="M-640,0L-4,0" transform="matrix(1 0 0 1 0 0)"/><text class="node-label" transform="scale(1 1)" style="user-select: none; cursor: default; fill: rgb(42, 63, 95); text-shadow: rgb(255, 255, 255) -1px 1px 1px, rgb(255, 255, 255) 1px 1px 1px, rgb(255, 255, 255) 1px -1px 1px, rgb(255, 255, 255) -1px -1px 1px; font-family: 'Open Sans', verdana, arial, sans-serif; font-size: 12px; fill-opacity: 1;"><textPath class="node-label-text-path" alignment-baseline="middle" xlink:href="#552508_0_node_4" startOffset="100%" text-anchor="end" style="fill: rgb(0, 0, 0);">Leisure</textPath></text></g></g><g class="sankey-node" transform="translate(620.000, 149.201)" style="opacity: 1;"><rect class="node-rect" width="20" height="1.3313609467455478" style="stroke-width: 0.5; stroke: rgb(0, 0, 0); stroke-opacity: 1; fill: rgb(0, 0, 255); fill-opacity: 1;"/><rect class="node-capture" x="-10" y="-7.5" width="40" height="16.331360946745548" style="fill-opacity: 0;"/><g class="node-entered" transform="translate(0 1.665680473372774)"><path class="node-label-guide" id="552508_0_node_5" d="M-640,0L-4,0" transform="matrix(1 0 0 1 0 0)"/><text class="node-label" transform="scale(1 1)" style="user-select: none; cursor: default; fill: rgb(42, 63, 95); text-shadow: rgb(255, 255, 255) -1px 1px 1px, rgb(255, 255, 255) 1px 1px 1px, rgb(255, 255, 255) 1px -1px 1px, rgb(255, 255, 255) -1px -1px 1px; font-family: 'Open Sans', verdana, arial, sans-serif; font-size: 12px; fill-opacity: 1;"><textPath class="node-label-text-path" alignment-baseline="middle" xlink:href="#552508_0_node_5" startOffset="100%" text-anchor="end" style="fill: rgb(0, 0, 0);">Collaborate</textPath></text></g></g><g class="sankey-node" transform="translate(620.000, 112.544)" style="opacity: 1;"><rect class="node-rect" width="20" height="3.9940828402367288" style="stroke-width: 0.5; stroke: rgb(0, 0, 0); stroke-opacity: 1; fill: rgb(0, 0, 255); fill-opacity: 1;"/><rect class="node-capture" x="-10" y="-7.5" width="40" height="18.99408284023673" style="fill-opacity: 0;"/><g class="node-entered" transform="translate(0 2.9970414201183644)"><path class="node-label-guide" id="552508_0_node_6" d="M-640,0L-4,0" transform="matrix(1 0 0 1 0 0)"/><text class="node-label" transform="scale(1 1)" style="user-select: none; cursor: default; fill: rgb(42, 63, 95); text-shadow: rgb(255, 255, 255) -1px 1px 1px, rgb(255, 255, 255) 1px 1px 1px, rgb(255, 255, 255) 1px -1px 1px, rgb(255, 255, 255) -1px -1px 1px; font-family: 'Open Sans', verdana, arial, sans-serif; font-size: 12px; fill-opacity: 1;"><textPath class="node-label-text-path" alignment-baseline="middle" xlink:href="#552508_0_node_6" startOffset="100%" text-anchor="end" style="fill: rgb(0, 0, 0);">Learn</textPath></text></g></g><g class="sankey-node" transform="translate(620.000, 165.533)" style="opacity: 1;"><rect class="node-rect" width="20" height="1.3313609467455763" style="stroke-width: 0.5; stroke: rgb(0, 0, 0); stroke-opacity: 1; fill: rgb(0, 0, 255); fill-opacity: 1;"/><rect class="node-capture" x="-10" y="-7.5" width="40" height="16.331360946745576" style="fill-opacity: 0;"/><g class="node-entered" transform="translate(0 1.6656804733727881)"><path class="node-label-guide" id="552508_0_node_7" d="M-640,0L-4,0" transform="matrix(1 0 0 1 0 0)"/><text class="node-label" transform="scale(1 1)" style="user-select: none; cursor: default; fill: rgb(42, 63, 95); text-shadow: rgb(255, 255, 255) -1px 1px 1px, rgb(255, 255, 255) 1px 1px 1px, rgb(255, 255, 255) 1px -1px 1px, rgb(255, 255, 255) -1px -1px 1px; font-family: 'Open Sans', verdana, arial, sans-serif; font-size: 12px; fill-opacity: 1;"><textPath class="node-label-text-path" alignment-baseline="middle" xlink:href="#552508_0_node_7" startOffset="100%" text-anchor="end" style="fill: rgb(0, 0, 0);">Socialize</textPath></text></g></g><g class="sankey-node" transform="translate(620.000, 131.538)" style="opacity: 1;"><rect class="node-rect" width="20" height="2.662721893491124" style="stroke-width: 0.5; stroke: rgb(0, 0, 0); stroke-opacity: 1; fill: rgb(0, 0, 255); fill-opacity: 1;"/><rect class="node-capture" x="-10" y="-7.5" width="40" height="17.662721893491124" style="fill-opacity: 0;"/><g class="node-entered" transform="translate(0 2.331360946745562)"><path class="node-label-guide" id="552508_0_node_8" d="M-640,0L-4,0" transform="matrix(1 0 0 1 0 0)"/><text class="node-label" transform="scale(1 1)" style="user-select: none; cursor: default; fill: rgb(42, 63, 95); text-shadow: rgb(255, 255, 255) -1px 1px 1px, rgb(255, 255, 255) 1px 1px 1px, rgb(255, 255, 255) 1px -1px 1px, rgb(255, 255, 255) -1px -1px 1px; font-family: 'Open Sans', verdana, arial, sans-serif; font-size: 12px; fill-opacity: 1;"><textPath class="node-label-text-path" alignment-baseline="middle" xlink:href="#552508_0_node_8" startOffset="100%" text-anchor="end" style="fill: rgb(0, 0, 0);">Distracting others? Yes</textPath></text></g></g><g class="sankey-node" transform="translate(620.000, 181.864)" style="opacity: 1;"><rect class="node-rect" width="20" height="1.3313609467455194" style="stroke-width: 0.5; stroke: rgb(0, 0, 0); stroke-opacity: 1; fill: rgb(0, 0, 255); fill-opacity: 1;"/><rect class="node-capture" x="-10" y="-7.5" width="40" height="16.33136094674552" style="fill-opacity: 0;"/><g class="node-entered" transform="translate(0 1.6656804733727597)"><path class="node-label-guide" id="552508_0_node_9" d="M-640,0L-4,0" transform="matrix(1 0 0 1 0 0)"/><text class="node-label" transform="scale(1 1)" style="user-select: none; cursor: default; fill: rgb(42, 63, 95); text-shadow: rgb(255, 255, 255) -1px 1px 1px, rgb(255, 255, 255) 1px 1px 1px, rgb(255, 255, 255) 1px -1px 1px, rgb(255, 255, 255) -1px -1px 1px; font-family: 'Open Sans', verdana, arial, sans-serif; font-size: 12px; fill-opacity: 1;"><textPath class="node-label-text-path" alignment-baseline="middle" xlink:href="#552508_0_node_9" startOffset="100%" text-anchor="end" style="fill: rgb(0, 0, 0);">Distracting others? No</textPath></text></g></g><g class="sankey-node" transform="translate(155.000, 390.094)" style="opacity: 1;"><rect class="node-rect" width="20" height="13.313609467455649" style="stroke-width: 0.5; stroke: rgb(0, 0, 0); stroke-opacity: 1; fill: rgb(0, 0, 255); fill-opacity: 1;"/><rect class="node-capture" x="-10" y="-7.5" width="40" height="28.31360946745565" style="fill-opacity: 0;"/><g class="node-entered" transform="translate(0 7.656804733727824)"><path class="node-label-guide" id="552508_0_node_10" d="M24,0L640,0" transform="matrix(1 0 0 1 0 0)"/><text class="node-label" transform="scale(1 1)" style="user-select: none; cursor: default; fill: rgb(42, 63, 95); text-shadow: rgb(255, 255, 255) -1px 1px 1px, rgb(255, 255, 255) 1px 1px 1px, rgb(255, 255, 255) 1px -1px 1px, rgb(255, 255, 255) -1px -1px 1px; font-family: 'Open Sans', verdana, arial, sans-serif; font-size: 12px; fill-opacity: 1;"><textPath class="node-label-text-path" alignment-baseline="middle" xlink:href="#552508_0_node_10" startOffset="0%" text-anchor="start" style="fill: rgb(0, 0, 0);">A lot</textPath></text></g></g><g class="sankey-node" transform="translate(155.000, 242.934)" style="opacity: 1;"><rect class="node-rect" width="20" height="47.928994082840404" style="stroke-width: 0.5; stroke: rgb(0, 0, 0); stroke-opacity: 1; fill: rgb(0, 0, 255); fill-opacity: 1;"/><rect class="node-capture" x="-10" y="-7.5" width="40" height="62.928994082840404" style="fill-opacity: 0;"/><g class="node-entered" transform="translate(0 24.964497041420202)"><path class="node-label-guide" id="552508_0_node_11" d="M24,0L640,0" transform="matrix(1 0 0 1 0 0)"/><text class="node-label" transform="scale(1 1)" style="user-select: none; cursor: default; fill: rgb(42, 63, 95); text-shadow: rgb(255, 255, 255) -1px 1px 1px, rgb(255, 255, 255) 1px 1px 1px, rgb(255, 255, 255) 1px -1px 1px, rgb(255, 255, 255) -1px -1px 1px; font-family: 'Open Sans', verdana, arial, sans-serif; font-size: 12px; fill-opacity: 1;"><textPath class="node-label-text-path" alignment-baseline="middle" xlink:href="#552508_0_node_11" startOffset="0%" text-anchor="start" style="fill: rgb(0, 0, 0);">None</textPath></text></g></g><g class="sankey-node" transform="translate(155.000, 305.863)" style="opacity: 1;"><rect class="node-rect" width="20" height="69.2307692307694" style="stroke-width: 0.5; stroke: rgb(0, 0, 0); stroke-opacity: 1; fill: rgb(0, 0, 255); fill-opacity: 1;"/><rect class="node-capture" x="-10" y="-7.5" width="40" height="84.2307692307694" style="fill-opacity: 0;"/><g class="node-entered" transform="translate(0 35.6153846153847)"><path class="node-label-guide" id="552508_0_node_12" d="M24,0L640,0" transform="matrix(1 0 0 1 0 0)"/><text class="node-label" transform="scale(1 1)" style="user-select: none; cursor: default; fill: rgb(42, 63, 95); text-shadow: rgb(255, 255, 255) -1px 1px 1px, rgb(255, 255, 255) 1px 1px 1px, rgb(255, 255, 255) 1px -1px 1px, rgb(255, 255, 255) -1px -1px 1px; font-family: 'Open Sans', verdana, arial, sans-serif; font-size: 12px; fill-opacity: 1;"><textPath class="node-label-text-path" alignment-baseline="middle" xlink:href="#552508_0_node_12" startOffset="0%" text-anchor="start" style="fill: rgb(0, 0, 0);">a little</textPath></text></g></g><g class="sankey-node" transform="translate(310.000, 320.049)" style="opacity: 1;"><rect class="node-rect" width="20" height="13.313609467455649" style="stroke-width: 0.5; stroke: rgb(0, 0, 0); stroke-opacity: 1; fill: rgb(0, 0, 255); fill-opacity: 1;"/><rect class="node-capture" x="-10" y="-7.5" width="40" height="28.31360946745565" style="fill-opacity: 0;"/><g class="node-entered" transform="translate(0 7.656804733727824)"><path class="node-label-guide" id="552508_0_node_13" d="M24,0L640,0" transform="matrix(1 0 0 1 0 0)"/><text class="node-label" transform="scale(1 1)" style="user-select: none; cursor: default; fill: rgb(42, 63, 95); text-shadow: rgb(255, 255, 255) -1px 1px 1px, rgb(255, 255, 255) 1px 1px 1px, rgb(255, 255, 255) 1px -1px 1px, rgb(255, 255, 255) -1px -1px 1px; font-family: 'Open Sans', verdana, arial, sans-serif; font-size: 12px; fill-opacity: 1;"><textPath class="node-label-text-path" alignment-baseline="middle" xlink:href="#552508_0_node_13" startOffset="0%" text-anchor="start" style="fill: rgb(0, 0, 0);">Need more privacy? Yes</textPath></text></g></g><g class="sankey-node" transform="translate(620.000, 198.195)" style="opacity: 1;"><rect class="node-rect" width="20" height="75.8875739644968" style="stroke-width: 0.5; stroke: rgb(0, 0, 0); stroke-opacity: 1; fill: rgb(0, 0, 255); fill-opacity: 1;"/><rect class="node-capture" x="-10" y="-7.5" width="40" height="90.8875739644968" style="fill-opacity: 0;"/><g class="node-entered" transform="translate(0 38.9437869822484)"><path class="node-label-guide" id="552508_0_node_14" d="M-640,0L-4,0" transform="matrix(1 0 0 1 0 0)"/><text class="node-label" transform="scale(1 1)" style="user-select: none; cursor: default; fill: rgb(42, 63, 95); text-shadow: rgb(255, 255, 255) -1px 1px 1px, rgb(255, 255, 255) 1px 1px 1px, rgb(255, 255, 255) 1px -1px 1px, rgb(255, 255, 255) -1px -1px 1px; font-family: 'Open Sans', verdana, arial, sans-serif; font-size: 12px; fill-opacity: 1;"><textPath class="node-label-text-path" alignment-baseline="middle" xlink:href="#552508_0_node_14" startOffset="100%" text-anchor="end" style="fill: rgb(0, 0, 0);">Need more privacy? No</textPath></text></g></g><g class="sankey-node" transform="translate(620.000, 289.083)" style="opacity: 1;"><rect class="node-rect" width="20" height="38.60946745562126" style="stroke-width: 0.5; stroke: rgb(0, 0, 0); stroke-opacity: 1; fill: rgb(0, 0, 255); fill-opacity: 1;"/><rect class="node-capture" x="-10" y="-7.5" width="40" height="53.60946745562126" style="fill-opacity: 0;"/><g class="node-entered" transform="translate(0 20.30473372781063)"><path class="node-label-guide" id="552508_0_node_15" d="M-640,0L-4,0" transform="matrix(1 0 0 1 0 0)"/><text class="node-label" transform="scale(1 1)" style="user-select: none; cursor: default; fill: rgb(42, 63, 95); text-shadow: rgb(255, 255, 255) -1px 1px 1px, rgb(255, 255, 255) 1px 1px 1px, rgb(255, 255, 255) 1px -1px 1px, rgb(255, 255, 255) -1px -1px 1px; font-family: 'Open Sans', verdana, arial, sans-serif; font-size: 12px; fill-opacity: 1;"><textPath class="node-label-text-path" alignment-baseline="middle" xlink:href="#552508_0_node_15" startOffset="100%" text-anchor="end" style="fill: rgb(0, 0, 0);">Audio</textPath></text></g></g><g class="sankey-node" transform="translate(620.000, 342.692)" style="opacity: 1;"><rect class="node-rect" width="20" height="2.6627218934911525" style="stroke-width: 0.5; stroke: rgb(0, 0, 0); stroke-opacity: 1; fill: rgb(0, 0, 255); fill-opacity: 1;"/><rect class="node-capture" x="-10" y="-7.5" width="40" height="17.662721893491153" style="fill-opacity: 0;"/><g class="node-entered" transform="translate(0 2.3313609467455763)"><path class="node-label-guide" id="552508_0_node_17" d="M-640,0L-4,0" transform="matrix(1 0 0 1 0 0)"/><text class="node-label" transform="scale(1 1)" style="user-select: none; cursor: default; fill: rgb(42, 63, 95); text-shadow: rgb(255, 255, 255) -1px 1px 1px, rgb(255, 255, 255) 1px 1px 1px, rgb(255, 255, 255) 1px -1px 1px, rgb(255, 255, 255) -1px -1px 1px; font-family: 'Open Sans', verdana, arial, sans-serif; font-size: 12px; fill-opacity: 1;"><textPath class="node-label-text-path" alignment-baseline="middle" xlink:href="#552508_0_node_17" startOffset="100%" text-anchor="end" style="fill: rgb(0, 0, 0);">Visual</textPath></text></g></g><g class="sankey-node" transform="translate(465.000, 346.162)" style="opacity: 1;"><rect class="node-rect" width="20" height="6.656804733727768" style="stroke-width: 0.5; stroke: rgb(0, 0, 0); stroke-opacity: 1; fill: rgb(0, 0, 255); fill-opacity: 1;"/><rect class="node-capture" x="-10" y="-7.5" width="40" height="21.656804733727768" style="fill-opacity: 0;"/><g class="node-entered" transform="translate(0 4.328402366863884)"><path class="node-label-guide" id="552508_0_node_21" d="M24,0L640,0" transform="matrix(1 0 0 1 0 0)"/><text class="node-label" transform="scale(1 1)" style="user-select: none; cursor: default; fill: rgb(42, 63, 95); text-shadow: rgb(255, 255, 255) -1px 1px 1px, rgb(255, 255, 255) 1px 1px 1px, rgb(255, 255, 255) 1px -1px 1px, rgb(255, 255, 255) -1px -1px 1px; font-family: 'Open Sans', verdana, arial, sans-serif; font-size: 12px; fill-opacity: 1;"><textPath class="node-label-text-path" alignment-baseline="middle" xlink:href="#552508_0_node_21" startOffset="0%" text-anchor="start" style="fill: rgb(0, 0, 0);">People see me</textPath></text></g></g><g class="sankey-node" transform="translate(620.000, 360.355)" style="opacity: 1;"><rect class="node-rect" width="20" height="3.9940828402367288" style="stroke-width: 0.5; stroke: rgb(0, 0, 0); stroke-opacity: 1; fill: rgb(0, 0, 255); fill-opacity: 1;"/><rect class="node-capture" x="-10" y="-7.5" width="40" height="18.99408284023673" style="fill-opacity: 0;"/><g class="node-entered" transform="translate(0 2.9970414201183644)"><path class="node-label-guide" id="552508_0_node_22" d="M-640,0L-4,0" transform="matrix(1 0 0 1 0 0)"/><text class="node-label" transform="scale(1 1)" style="user-select: none; cursor: default; fill: rgb(42, 63, 95); text-shadow: rgb(255, 255, 255) -1px 1px 1px, rgb(255, 255, 255) 1px 1px 1px, rgb(255, 255, 255) 1px -1px 1px, rgb(255, 255, 255) -1px -1px 1px; font-family: 'Open Sans', verdana, arial, sans-serif; font-size: 12px; fill-opacity: 1;"><textPath class="node-label-text-path" alignment-baseline="middle" xlink:href="#552508_0_node_22" startOffset="100%" text-anchor="end" style="fill: rgb(0, 0, 0);">people hear me</textPath></text></g></g><g class="sankey-node" transform="translate(620.000, 379.349)" style="opacity: 1;"><rect class="node-rect" width="20" height="3.9940828402367288" style="stroke-width: 0.5; stroke: rgb(0, 0, 0); stroke-opacity: 1; fill: rgb(0, 0, 255); fill-opacity: 1;"/><rect class="node-capture" x="-10" y="-7.5" width="40" height="18.99408284023673" style="fill-opacity: 0;"/><g class="node-entered" transform="translate(0 2.9970414201183644)"><path class="node-label-guide" id="552508_0_node_23" d="M-640,0L-4,0" transform="matrix(1 0 0 1 0 0)"/><text class="node-label" transform="scale(1 1)" style="user-select: none; cursor: default; fill: rgb(42, 63, 95); text-shadow: rgb(255, 255, 255) -1px 1px 1px, rgb(255, 255, 255) 1px 1px 1px, rgb(255, 255, 255) 1px -1px 1px, rgb(255, 255, 255) -1px -1px 1px; font-family: 'Open Sans', verdana, arial, sans-serif; font-size: 12px; fill-opacity: 1;"><textPath class="node-label-text-path" alignment-baseline="middle" xlink:href="#552508_0_node_23" startOffset="100%" text-anchor="end" style="fill: rgb(0, 0, 0);">see and hear me</textPath></text></g></g><g class="sankey-node" transform="translate(620.000, 398.343)" style="opacity: 1;"><rect class="node-rect" width="20" height="3.9940828402367288" style="stroke-width: 0.5; stroke: rgb(0, 0, 0); stroke-opacity: 1; fill: rgb(0, 0, 255); fill-opacity: 1;"/><rect class="node-capture" x="-10" y="-7.5" width="40" height="18.99408284023673" style="fill-opacity: 0;"/><g class="node-entered" transform="translate(0 2.9970414201183644)"><path class="node-label-guide" id="552508_0_node_24" d="M-640,0L-4,0" transform="matrix(1 0 0 1 0 0)"/><text class="node-label" transform="scale(1 1)" style="user-select: none; cursor: default; fill: rgb(42, 63, 95); text-shadow: rgb(255, 255, 255) -1px 1px 1px, rgb(255, 255, 255) 1px 1px 1px, rgb(255, 255, 255) 1px -1px 1px, rgb(255, 255, 255) -1px -1px 1px; font-family: 'Open Sans', verdana, arial, sans-serif; font-size: 12px; fill-opacity: 1;"><textPath class="node-label-text-path" alignment-baseline="middle" xlink:href="#552508_0_node_24" startOffset="100%" text-anchor="end" style="fill: rgb(0, 0, 0);">Work</textPath></text></g></g><g class="sankey-node" transform="translate(620.000, 417.337)" style="opacity: 1;"><rect class="node-rect" width="20" height="2.662721893491039" style="stroke-width: 0.5; stroke: rgb(0, 0, 0); stroke-opacity: 1; fill: rgb(0, 0, 255); fill-opacity: 1;"/><rect class="node-capture" x="-10" y="-7.5" width="40" height="17.66272189349104" style="fill-opacity: 0;"/><g class="node-entered" transform="translate(0 2.3313609467455194)"><path class="node-label-guide" id="552508_0_node_26" d="M-640,0L-4,0" transform="matrix(1 0 0 1 0 0)"/><text class="node-label" transform="scale(1 1)" style="user-select: none; cursor: default; fill: rgb(42, 63, 95); text-shadow: rgb(255, 255, 255) -1px 1px 1px, rgb(255, 255, 255) 1px 1px 1px, rgb(255, 255, 255) 1px -1px 1px, rgb(255, 255, 255) -1px -1px 1px; font-family: 'Open Sans', verdana, arial, sans-serif; font-size: 12px; fill-opacity: 1;"><textPath class="node-label-text-path" alignment-baseline="middle" xlink:href="#552508_0_node_26" startOffset="100%" text-anchor="end" style="fill: rgb(0, 0, 0);">Appearance</textPath></text></g></g><g class="sankey-node" transform="translate(0.000, 9.008)" style="opacity: 1;"><rect class="node-rect" width="20" height="91.86390532544377" style="stroke-width: 0.5; stroke: rgb(0, 0, 0); stroke-opacity: 1; fill: rgb(0, 0, 255); fill-opacity: 1;"/><rect class="node-capture" x="-10" y="-7.5" width="40" height="106.86390532544377" style="fill-opacity: 0;"/><g class="node-entered" transform="translate(0 46.93195266272188)"><path class="node-label-guide" id="552508_0_node_27" d="M24,0L640,0" transform="matrix(1 0 0 1 0 0)"/><text class="node-label" transform="scale(1 1)" style="user-select: none; cursor: default; fill: rgb(42, 63, 95); text-shadow: rgb(255, 255, 255) -1px 1px 1px, rgb(255, 255, 255) 1px 1px 1px, rgb(255, 255, 255) 1px -1px 1px, rgb(255, 255, 255) -1px -1px 1px; font-family: 'Open Sans', verdana, arial, sans-serif; font-size: 12px; fill-opacity: 1;"><textPath class="node-label-text-path" alignment-baseline="middle" xlink:href="#552508_0_node_27" startOffset="0%" text-anchor="start" style="fill: rgb(0, 0, 0);">Are you ? </textPath></text></g></g><g class="sankey-node" transform="translate(0.000, 234.465)" style="opacity: 1;"><rect class="node-rect" width="20" height="89.20118343195261" style="stroke-width: 0.5; stroke: rgb(0, 0, 0); stroke-opacity: 1; fill: rgb(0, 0, 255); fill-opacity: 1;"/><rect class="node-capture" x="-10" y="-7.5" width="40" height="104.20118343195261" style="fill-opacity: 0;"/><g class="node-entered" transform="translate(0 45.60059171597631)"><path class="node-label-guide" id="552508_0_node_28" d="M24,0L640,0" transform="matrix(1 0 0 1 0 0)"/><text class="node-label" transform="scale(1 1)" style="user-select: none; cursor: default; fill: rgb(42, 63, 95); text-shadow: rgb(255, 255, 255) -1px 1px 1px, rgb(255, 255, 255) 1px 1px 1px, rgb(255, 255, 255) 1px -1px 1px, rgb(255, 255, 255) -1px -1px 1px; font-family: 'Open Sans', verdana, arial, sans-serif; font-size: 12px; fill-opacity: 1;"><textPath class="node-label-text-path" alignment-baseline="middle" xlink:href="#552508_0_node_28" startOffset="0%" text-anchor="start" style="fill: rgb(0, 0, 0);">Distractions nearby ?</textPath></text></g></g></g></g><defs id="topdefs-2086af"><g class="clips"/></defs><g class="layer-above"><g class="imagelayer"/><g class="shapelayer"/></g><g class="infolayer"><g class="g-gtitle"/><g class="first-render"/></g></svg>