<svg class="main-svg" xmlns="http://www.w3.org/2000/svg" xmlns:xlink="http://www.w3.org/1999/xlink" width="800" height="600" style="" viewBox="0 0 800 600"><rect x="0" y="0" width="800" height="600" style="fill: rgb(255, 255, 255); fill-opacity: 1;"/><defs id="defs-bad5f8"><g class="clips"/><g class="gradients"/></defs><g class="bglayer"/><g class="layer-below"><g class="imagelayer"/><g class="shapelayer"/></g><g class="cartesianlayer"/><g class="polarlayer"/><g class="ternarylayer"/><g class="geolayer"/><g class="funnelarealayer"/><g class="pielayer"/><g class="treemaplayer"/><g class="sunburstlayer"/><g class="glimages"/><g class="sankey" transform="translate(80,100)matrix(1 0 0 1 0 0)" style="box-sizing: content-box; position: absolute; left: 0px; shape-rendering: geometricprecision; pointer-events: auto;"><g class="sankey-links" style="fill: none;"><path class="sankey-link" d="M20,93.24554576769438C113.33333333333333,93.24554576769438 113.33333333333333,81.52861685956985 206.66666666666666,81.52861685956985L206.66666666666666,92.61557338130898C113.33333333333333,92.61557338130898 113.33333333333333,104.3325022894335 20,104.3325022894335Z" style="stroke: rgb(68, 68, 68); stroke-opacity: 1; fill: rgb(0, 0, 0); fill-opacity: 0.2; stroke-width: 0; opacity: 1;"/><path class="sankey-link" d="M20,109.87598055030307C320,109.87598055030307 320,110.10869565217351 620,110.10869565217351L620,132.28260869565176C320,132.28260869565176 320,132.04989359378132 20,132.04989359378132Z" style="stroke: rgb(68, 68, 68); stroke-opacity: 1; fill: rgb(0, 0, 0); fill-opacity: 0.2; stroke-width: 0; opacity: 1;"/><path class="sankey-link" d="M20,132.04989359378132C320,132.04989359378132 320,147.28260869565216 620,147.28260869565216L620,152.82608695652172C320,152.82608695652172 320,137.59337185465088 20,137.59337185465088Z" style="stroke: rgb(68, 68, 68); stroke-opacity: 1; fill: rgb(0, 0, 0); fill-opacity: 0.2; stroke-width: 0; opacity: 1;"/><path class="sankey-link" d="M20,150.52815446334654C320,150.52815446334654 320,195.7608695652174 620,195.7608695652174L620,197.6086956521739C320,197.6086956521739 320,152.37598055030304 20,152.37598055030304Z" style="stroke: rgb(68, 68, 68); stroke-opacity: 1; fill: rgb(0, 0, 0); fill-opacity: 0.2; stroke-width: 0; opacity: 1;"/><path class="sankey-link" d="M20,17.003287059206386C320,17.003287059206386 320,-3.836930773104541e-13 620,-3.836930773104541e-13L620,11.086956521738747C320,11.086956521738747 320,28.09024358094552 20,28.09024358094552Z" style="stroke: rgb(68, 68, 68); stroke-opacity: 1; fill: rgb(0, 0, 0); fill-opacity: 0.2; stroke-width: 0; opacity: 1;"/><path class="sankey-link" d="M20,28.09024358094552C113.33333333333333,28.09024358094552 113.33333333333333,70.44166033783071 206.66666666666666,70.44166033783071L206.66666666666666,74.13731251174374C113.33333333333333,74.13731251174374 113.33333333333333,31.785895754858565 20,31.785895754858565Z" style="stroke: rgb(68, 68, 68); stroke-opacity: 1; fill: rgb(0, 0, 0); fill-opacity: 0.2; stroke-width: 0; opacity: 1;"/><path class="sankey-link" d="M20,46.78589575485856C320,46.78589575485856 320,11.086956521738747 620,11.086956521738747L620,16.63043478260831C320,16.63043478260831 320,52.32937401572812 20,52.32937401572812Z" style="stroke: rgb(68, 68, 68); stroke-opacity: 1; fill: rgb(0, 0, 0); fill-opacity: 0.2; stroke-width: 0; opacity: 1;"/><path class="sankey-link" d="M20,52.32937401572812C320,52.32937401572812 320,31.630434782608262 620,31.630434782608262L620,37.173913043477825C320,37.173913043477825 320,57.87285227659768 20,57.87285227659768Z" style="stroke: rgb(68, 68, 68); stroke-opacity: 1; fill: rgb(0, 0, 0); fill-opacity: 0.2; stroke-width: 0; opacity: 1;"/><path class="sankey-link" d="M20,57.87285227659768C113.33333333333333,57.87285227659768 113.33333333333333,74.13731251174376 206.66666666666666,74.13731251174376L206.66666666666666,81.52861685956985C113.33333333333333,81.52861685956985 113.33333333333333,65.26415662442378 20,65.26415662442378Z" style="stroke: rgb(68, 68, 68); stroke-opacity: 1; fill: rgb(0, 0, 0); fill-opacity: 0.2; stroke-width: 0; opacity: 1;"/><path class="sankey-link" d="M226.66666666666666,70.44166033783071C423.33333333333337,70.44166033783071 423.33333333333337,52.173913043477825 620,52.173913043477825L620,57.71739130434739C423.33333333333337,57.71739130434739 423.33333333333337,75.98513859870027 226.66666666666666,75.98513859870027Z" style="stroke: rgb(68, 68, 68); stroke-opacity: 1; fill: rgb(0, 0, 0); fill-opacity: 0.2; stroke-width: 0; opacity: 1;"/><path class="sankey-link" d="M20,143.13685011552045C320,143.13685011552045 320,173.36956521739134 620,173.36956521739134L620,180.7608695652174C320,180.7608695652174 320,150.5281544633465 20,150.5281544633465Z" style="stroke: rgb(68, 68, 68); stroke-opacity: 1; fill: rgb(0, 0, 0); fill-opacity: 0.2; stroke-width: 0; opacity: 1;"/><path class="sankey-link" d="M20,137.59337185465088C320,137.59337185465088 320,152.82608695652172 620,152.82608695652172L620,158.36956521739128C320,158.36956521739128 320,143.13685011552045 20,143.13685011552045Z" style="stroke: rgb(68, 68, 68); stroke-opacity: 1; fill: rgb(0, 0, 0); fill-opacity: 0.2; stroke-width: 0; opacity: 1;"/><path class="sankey-link" d="M20,104.3325022894335C113.33333333333333,104.3325022894335 113.33333333333333,92.61557338130898 206.66666666666666,92.61557338130898L206.66666666666666,98.15905164217854C113.33333333333333,98.15905164217854 113.33333333333333,109.87598055030307 20,109.87598055030307Z" style="stroke: rgb(68, 68, 68); stroke-opacity: 1; fill: rgb(0, 0, 0); fill-opacity: 0.2; stroke-width: 0; opacity: 1;"/><path class="sankey-link" d="M226.66666666666666,75.98513859870027C423.33333333333337,75.98513859870027 423.33333333333337,57.71739130434739 620,57.71739130434739L620,61.413043478260434C423.33333333333337,61.413043478260434 423.33333333333337,79.6807907726133 226.66666666666666,79.6807907726133Z" style="stroke: rgb(68, 68, 68); stroke-opacity: 1; fill: rgb(0, 0, 0); fill-opacity: 0.2; stroke-width: 0; opacity: 1;"/><path class="sankey-link" d="M226.66666666666666,79.68079077261332C423.33333333333337,79.68079077261332 423.33333333333337,76.41304347826045 620,76.41304347826045L620,78.26086956521698C423.33333333333337,78.26086956521698 423.33333333333337,81.52861685956985 226.66666666666666,81.52861685956985Z" style="stroke: rgb(68, 68, 68); stroke-opacity: 1; fill: rgb(0, 0, 0); fill-opacity: 0.2; stroke-width: 0; opacity: 1;"/><path class="sankey-link" d="M226.66666666666666,81.52861685956984C423.33333333333337,81.52861685956984 423.33333333333337,93.26086956521698 620,93.26086956521698L620,95.10869565217351C423.33333333333337,95.10869565217351 423.33333333333337,83.37644294652637 226.66666666666666,83.37644294652637Z" style="stroke: rgb(68, 68, 68); stroke-opacity: 1; fill: rgb(0, 0, 0); fill-opacity: 0.2; stroke-width: 0; opacity: 1;"/><path class="sankey-link" d="M20,297.25116368038306C113.33333333333333,297.25116368038306 113.33333333333333,271.26646832634464 206.66666666666666,271.26646832634464L206.66666666666666,337.7882074567794C113.33333333333333,337.7882074567794 113.33333333333333,363.7729028108178 20,363.7729028108178Z" style="stroke: rgb(68, 68, 68); stroke-opacity: 1; fill: rgb(0, 0, 0); fill-opacity: 0.2; stroke-width: 0; opacity: 1;"/><path class="sankey-link" d="M20,212.25116368038306C320,212.25116368038306 320,212.6086956521739 620,212.6086956521739L620,297.6086956521739C320,297.6086956521739 320,297.25116368038306 20,297.25116368038306Z" style="stroke: rgb(68, 68, 68); stroke-opacity: 1; fill: rgb(0, 0, 0); fill-opacity: 0.2; stroke-width: 0; opacity: 1;"/><path class="sankey-link" d="M226.66666666666666,271.26646832634464C320,271.26646832634464 320,274.8526219156532 413.3333333333333,274.8526219156532L413.3333333333333,341.3743610460879C320,341.3743610460879 320,337.7882074567794 226.66666666666666,337.7882074567794Z" style="stroke: rgb(68, 68, 68); stroke-opacity: 1; fill: rgb(0, 0, 0); fill-opacity: 0.2; stroke-width: 0; opacity: 1;"/><path class="sankey-link" d="M433.3333333333333,341.374361046088C526.6666666666666,341.374361046088 526.6666666666666,394.13043478260875 620,394.13043478260875L620,420C526.6666666666666,420 526.6666666666666,367.24392626347924 433.3333333333333,367.24392626347924Z" style="stroke: rgb(68, 68, 68); stroke-opacity: 1; fill: rgb(0, 0, 0); fill-opacity: 0.2; stroke-width: 0; opacity: 1;"/><path class="sankey-link" d="M433.3333333333333,274.8526219156532C526.6666666666666,274.8526219156532 526.6666666666666,312.608695652174 620,312.608695652174L620,379.13043478260875C526.6666666666666,379.13043478260875 526.6666666666666,341.3743610460879 433.3333333333333,341.3743610460879Z" style="stroke: rgb(68, 68, 68); stroke-opacity: 1; fill: rgb(0, 0, 0); fill-opacity: 0.2; stroke-width: 0; opacity: 1;"/></g><g class="sankey-node-set" style="cursor: move;"><g class="sankey-node" transform="translate(0.000, 17.003)" style="opacity: 1;"><rect class="node-rect" width="20" height="14.782608695652172" style="stroke-width: 0.5; stroke: rgb(0, 0, 0); stroke-opacity: 1; fill: rgb(0, 0, 255); fill-opacity: 1;"/><rect class="node-capture" x="-10" y="-7.5" width="40" height="29.782608695652172" style="fill-opacity: 0;"/><g class="node-entered" transform="translate(0 8.391304347826086)"><path class="node-label-guide" id="a679a2_0_node_0" d="M24,0L640,0" transform="matrix(1 0 0 1 0 0)"/><text class="node-label" transform="scale(1 1)" style="user-select: none; cursor: default; fill: rgb(42, 63, 95); text-shadow: rgb(255, 255, 255) -1px 1px 1px, rgb(255, 255, 255) 1px 1px 1px, rgb(255, 255, 255) 1px -1px 1px, rgb(255, 255, 255) -1px -1px 1px; font-family: 'Open Sans', verdana, arial, sans-serif; font-size: 12px; fill-opacity: 1;"><textPath class="node-label-text-path" alignment-baseline="middle" xlink:href="#a679a2_0_node_0" startOffset="0%" text-anchor="start" style="fill: rgb(0, 0, 0);">Lift</textPath></text></g></g><g class="sankey-node" transform="translate(0.000, 93.246)" style="opacity: 1;"><rect class="node-rect" width="20" height="59.13043478260872" style="stroke-width: 0.5; stroke: rgb(0, 0, 0); stroke-opacity: 1; fill: rgb(0, 0, 255); fill-opacity: 1;"/><rect class="node-capture" x="-10" y="-7.5" width="40" height="74.13043478260872" style="fill-opacity: 0;"/><g class="node-entered" transform="translate(0 30.56521739130436)"><path class="node-label-guide" id="a679a2_0_node_1" d="M24,0L640,0" transform="matrix(1 0 0 1 0 0)"/><text class="node-label" transform="scale(1 1)" style="user-select: none; cursor: default; fill: rgb(42, 63, 95); text-shadow: rgb(255, 255, 255) -1px 1px 1px, rgb(255, 255, 255) 1px 1px 1px, rgb(255, 255, 255) 1px -1px 1px, rgb(255, 255, 255) -1px -1px 1px; font-family: 'Open Sans', verdana, arial, sans-serif; font-size: 12px; fill-opacity: 1;"><textPath class="node-label-text-path" alignment-baseline="middle" xlink:href="#a679a2_0_node_1" startOffset="0%" text-anchor="start" style="fill: rgb(0, 0, 0);">Stairs</textPath></text></g></g><g class="sankey-node" transform="translate(0.000, 46.786)" style="opacity: 1;"><rect class="node-rect" width="20" height="18.478260869565204" style="stroke-width: 0.5; stroke: rgb(0, 0, 0); stroke-opacity: 1; fill: rgb(0, 0, 255); fill-opacity: 1;"/><rect class="node-capture" x="-10" y="-7.5" width="40" height="33.478260869565204" style="fill-opacity: 0;"/><g class="node-entered" transform="translate(0 10.239130434782602)"><path class="node-label-guide" id="a679a2_0_node_2" d="M24,0L640,0" transform="matrix(1 0 0 1 0 0)"/><text class="node-label" transform="scale(1 1)" style="user-select: none; cursor: default; fill: rgb(42, 63, 95); text-shadow: rgb(255, 255, 255) -1px 1px 1px, rgb(255, 255, 255) 1px 1px 1px, rgb(255, 255, 255) 1px -1px 1px, rgb(255, 255, 255) -1px -1px 1px; font-family: 'Open Sans', verdana, arial, sans-serif; font-size: 12px; fill-opacity: 1;"><textPath class="node-label-text-path" alignment-baseline="middle" xlink:href="#a679a2_0_node_2" startOffset="0%" text-anchor="start" style="fill: rgb(0, 0, 0);">Both</textPath></text></g></g><g class="sankey-node" transform="translate(620.000, -0.000)" style="opacity: 1;"><rect class="node-rect" width="20" height="16.630434782608646" style="stroke-width: 0.5; stroke: rgb(0, 0, 0); stroke-opacity: 1; fill: rgb(0, 0, 255); fill-opacity: 1;"/><rect class="node-capture" x="-10" y="-7.5" width="40" height="31.630434782608646" style="fill-opacity: 0;"/><g class="node-entered" transform="translate(0 9.315217391304323)"><path class="node-label-guide" id="a679a2_0_node_4" d="M-640,0L-4,0" transform="matrix(1 0 0 1 0 0)"/><text class="node-label" transform="scale(1 1)" style="user-select: none; cursor: default; fill: rgb(42, 63, 95); text-shadow: rgb(255, 255, 255) -1px 1px 1px, rgb(255, 255, 255) 1px 1px 1px, rgb(255, 255, 255) 1px -1px 1px, rgb(255, 255, 255) -1px -1px 1px; font-family: 'Open Sans', verdana, arial, sans-serif; font-size: 12px; fill-opacity: 1;"><textPath class="node-label-text-path" alignment-baseline="middle" xlink:href="#a679a2_0_node_4" startOffset="100%" text-anchor="end" style="fill: rgb(0, 0, 0);">Less effort</textPath></text></g></g><g class="sankey-node" transform="translate(620.000, 31.630)" style="opacity: 1;"><rect class="node-rect" width="20" height="5.543478260869563" style="stroke-width: 0.5; stroke: rgb(0, 0, 0); stroke-opacity: 1; fill: rgb(0, 0, 255); fill-opacity: 1;"/><rect class="node-capture" x="-10" y="-7.5" width="40" height="20.543478260869563" style="fill-opacity: 0;"/><g class="node-entered" transform="translate(0 3.7717391304347814)"><path class="node-label-guide" id="a679a2_0_node_5" d="M-640,0L-4,0" transform="matrix(1 0 0 1 0 0)"/><text class="node-label" transform="scale(1 1)" style="user-select: none; cursor: default; fill: rgb(42, 63, 95); text-shadow: rgb(255, 255, 255) -1px 1px 1px, rgb(255, 255, 255) 1px 1px 1px, rgb(255, 255, 255) 1px -1px 1px, rgb(255, 255, 255) -1px -1px 1px; font-family: 'Open Sans', verdana, arial, sans-serif; font-size: 12px; fill-opacity: 1;"><textPath class="node-label-text-path" alignment-baseline="middle" xlink:href="#a679a2_0_node_5" startOffset="100%" text-anchor="end" style="fill: rgb(0, 0, 0);">No stairs</textPath></text></g></g><g class="sankey-node" transform="translate(206.667, 70.442)" style="opacity: 1;"><rect class="node-rect" width="20" height="27.717391304347828" style="stroke-width: 0.5; stroke: rgb(0, 0, 0); stroke-opacity: 1; fill: rgb(0, 0, 255); fill-opacity: 1;"/><rect class="node-capture" x="-10" y="-7.5" width="40" height="42.71739130434783" style="fill-opacity: 0;"/><g class="node-entered" transform="translate(0 14.858695652173914)"><path class="node-label-guide" id="a679a2_0_node_6" d="M24,0L640,0" transform="matrix(1 0 0 1 0 0)"/><text class="node-label" transform="scale(1 1)" style="user-select: none; cursor: default; fill: rgb(42, 63, 95); text-shadow: rgb(255, 255, 255) -1px 1px 1px, rgb(255, 255, 255) 1px 1px 1px, rgb(255, 255, 255) 1px -1px 1px, rgb(255, 255, 255) -1px -1px 1px; font-family: 'Open Sans', verdana, arial, sans-serif; font-size: 12px; fill-opacity: 1;"><textPath class="node-label-text-path" alignment-baseline="middle" xlink:href="#a679a2_0_node_6" startOffset="0%" text-anchor="start" style="fill: rgb(0, 0, 0);">Convenient</textPath></text></g></g><g class="sankey-node" transform="translate(620.000, 110.109)" style="opacity: 1;"><rect class="node-rect" width="20" height="22.17391304347865" style="stroke-width: 0.5; stroke: rgb(0, 0, 0); stroke-opacity: 1; fill: rgb(0, 0, 255); fill-opacity: 1;"/><rect class="node-capture" x="-10" y="-7.5" width="40" height="37.17391304347865" style="fill-opacity: 0;"/><g class="node-entered" transform="translate(0 12.086956521739324)"><path class="node-label-guide" id="a679a2_0_node_7" d="M-640,0L-4,0" transform="matrix(1 0 0 1 0 0)"/><text class="node-label" transform="scale(1 1)" style="user-select: none; cursor: default; fill: rgb(42, 63, 95); text-shadow: rgb(255, 255, 255) -1px 1px 1px, rgb(255, 255, 255) 1px 1px 1px, rgb(255, 255, 255) 1px -1px 1px, rgb(255, 255, 255) -1px -1px 1px; font-family: 'Open Sans', verdana, arial, sans-serif; font-size: 12px; fill-opacity: 1;"><textPath class="node-label-text-path" alignment-baseline="middle" xlink:href="#a679a2_0_node_7" startOffset="100%" text-anchor="end" style="fill: rgb(0, 0, 0);">Fitness</textPath></text></g></g><g class="sankey-node" transform="translate(620.000, 147.283)" style="opacity: 1;"><rect class="node-rect" width="20" height="11.086956521739182" style="stroke-width: 0.5; stroke: rgb(0, 0, 0); stroke-opacity: 1; fill: rgb(0, 0, 255); fill-opacity: 1;"/><rect class="node-capture" x="-10" y="-7.5" width="40" height="26.086956521739182" style="fill-opacity: 0;"/><g class="node-entered" transform="translate(0 6.543478260869591)"><path class="node-label-guide" id="a679a2_0_node_8" d="M-640,0L-4,0" transform="matrix(1 0 0 1 0 0)"/><text class="node-label" transform="scale(1 1)" style="user-select: none; cursor: default; fill: rgb(42, 63, 95); text-shadow: rgb(255, 255, 255) -1px 1px 1px, rgb(255, 255, 255) 1px 1px 1px, rgb(255, 255, 255) 1px -1px 1px, rgb(255, 255, 255) -1px -1px 1px; font-family: 'Open Sans', verdana, arial, sans-serif; font-size: 12px; fill-opacity: 1;"><textPath class="node-label-text-path" alignment-baseline="middle" xlink:href="#a679a2_0_node_8" startOffset="100%" text-anchor="end" style="fill: rgb(0, 0, 0);">No lift</textPath></text></g></g><g class="sankey-node" transform="translate(620.000, 173.370)" style="opacity: 1;"><rect class="node-rect" width="20" height="7.391304347826065" style="stroke-width: 0.5; stroke: rgb(0, 0, 0); stroke-opacity: 1; fill: rgb(0, 0, 255); fill-opacity: 1;"/><rect class="node-capture" x="-10" y="-7.5" width="40" height="22.391304347826065" style="fill-opacity: 0;"/><g class="node-entered" transform="translate(0 4.695652173913032)"><path class="node-label-guide" id="a679a2_0_node_9" d="M-640,0L-4,0" transform="matrix(1 0 0 1 0 0)"/><text class="node-label" transform="scale(1 1)" style="user-select: none; cursor: default; fill: rgb(42, 63, 95); text-shadow: rgb(255, 255, 255) -1px 1px 1px, rgb(255, 255, 255) 1px 1px 1px, rgb(255, 255, 255) 1px -1px 1px, rgb(255, 255, 255) -1px -1px 1px; font-family: 'Open Sans', verdana, arial, sans-serif; font-size: 12px; fill-opacity: 1;"><textPath class="node-label-text-path" alignment-baseline="middle" xlink:href="#a679a2_0_node_9" startOffset="100%" text-anchor="end" style="fill: rgb(0, 0, 0);">Convenient</textPath></text></g></g><g class="sankey-node" transform="translate(620.000, 195.761)" style="opacity: 1;"><rect class="node-rect" width="20" height="1.847826086956502" style="stroke-width: 0.5; stroke: rgb(0, 0, 0); stroke-opacity: 1; fill: rgb(0, 0, 255); fill-opacity: 1;"/><rect class="node-capture" x="-10" y="-7.5" width="40" height="16.847826086956502" style="fill-opacity: 0;"/><g class="node-entered" transform="translate(0 1.923913043478251)"><path class="node-label-guide" id="a679a2_0_node_10" d="M-640,0L-4,0" transform="matrix(1 0 0 1 0 0)"/><text class="node-label" transform="scale(1 1)" style="user-select: none; cursor: default; fill: rgb(42, 63, 95); text-shadow: rgb(255, 255, 255) -1px 1px 1px, rgb(255, 255, 255) 1px 1px 1px, rgb(255, 255, 255) 1px -1px 1px, rgb(255, 255, 255) -1px -1px 1px; font-family: 'Open Sans', verdana, arial, sans-serif; font-size: 12px; fill-opacity: 1;"><textPath class="node-label-text-path" alignment-baseline="middle" xlink:href="#a679a2_0_node_10" startOffset="100%" text-anchor="end" style="fill: rgb(0, 0, 0);">Save Energy</textPath></text></g></g><g class="sankey-node" transform="translate(413.333, 274.853)" style="opacity: 1;"><rect class="node-rect" width="20" height="92.39130434782612" style="stroke-width: 0.5; stroke: rgb(0, 0, 0); stroke-opacity: 1; fill: rgb(0, 0, 255); fill-opacity: 1;"/><rect class="node-capture" x="-10" y="-7.5" width="40" height="107.39130434782612" style="fill-opacity: 0;"/><g class="node-entered" transform="translate(0 47.19565217391306)"><path class="node-label-guide" id="a679a2_0_node_12" d="M24,0L640,0" transform="matrix(1 0 0 1 0 0)"/><text class="node-label" transform="scale(1 1)" style="user-select: none; cursor: default; fill: rgb(42, 63, 95); text-shadow: rgb(255, 255, 255) -1px 1px 1px, rgb(255, 255, 255) 1px 1px 1px, rgb(255, 255, 255) 1px -1px 1px, rgb(255, 255, 255) -1px -1px 1px; font-family: 'Open Sans', verdana, arial, sans-serif; font-size: 12px; fill-opacity: 1;"><textPath class="node-label-text-path" alignment-baseline="middle" xlink:href="#a679a2_0_node_12" startOffset="0%" text-anchor="start" style="fill: rgb(0, 0, 0);">Worksatation type :Sitting</textPath></text></g></g><g class="sankey-node" transform="translate(620.000, 76.413)" style="opacity: 1;"><rect class="node-rect" width="20" height="1.8478260869565304" style="stroke-width: 0.5; stroke: rgb(0, 0, 0); stroke-opacity: 1; fill: rgb(0, 0, 255); fill-opacity: 1;"/><rect class="node-capture" x="-10" y="-7.5" width="40" height="16.84782608695653" style="fill-opacity: 0;"/><g class="node-entered" transform="translate(0 1.9239130434782652)"><path class="node-label-guide" id="a679a2_0_node_18" d="M-640,0L-4,0" transform="matrix(1 0 0 1 0 0)"/><text class="node-label" transform="scale(1 1)" style="user-select: none; cursor: default; fill: rgb(42, 63, 95); text-shadow: rgb(255, 255, 255) -1px 1px 1px, rgb(255, 255, 255) 1px 1px 1px, rgb(255, 255, 255) 1px -1px 1px, rgb(255, 255, 255) -1px -1px 1px; font-family: 'Open Sans', verdana, arial, sans-serif; font-size: 12px; fill-opacity: 1;"><textPath class="node-label-text-path" alignment-baseline="middle" xlink:href="#a679a2_0_node_18" startOffset="100%" text-anchor="end" style="fill: rgb(0, 0, 0);">Easiest</textPath></text></g></g><g class="sankey-node" transform="translate(620.000, 93.261)" style="opacity: 1;"><rect class="node-rect" width="20" height="1.8478260869565304" style="stroke-width: 0.5; stroke: rgb(0, 0, 0); stroke-opacity: 1; fill: rgb(0, 0, 255); fill-opacity: 1;"/><rect class="node-capture" x="-10" y="-7.5" width="40" height="16.84782608695653" style="fill-opacity: 0;"/><g class="node-entered" transform="translate(0 1.9239130434782652)"><path class="node-label-guide" id="a679a2_0_node_19" d="M-640,0L-4,0" transform="matrix(1 0 0 1 0 0)"/><text class="node-label" transform="scale(1 1)" style="user-select: none; cursor: default; fill: rgb(42, 63, 95); text-shadow: rgb(255, 255, 255) -1px 1px 1px, rgb(255, 255, 255) 1px 1px 1px, rgb(255, 255, 255) 1px -1px 1px, rgb(255, 255, 255) -1px -1px 1px; font-family: 'Open Sans', verdana, arial, sans-serif; font-size: 12px; fill-opacity: 1;"><textPath class="node-label-text-path" alignment-baseline="middle" xlink:href="#a679a2_0_node_19" startOffset="100%" text-anchor="end" style="fill: rgb(0, 0, 0);">Fastest</textPath></text></g></g><g class="sankey-node" transform="translate(620.000, 52.174)" style="opacity: 1;"><rect class="node-rect" width="20" height="9.239130434782624" style="stroke-width: 0.5; stroke: rgb(0, 0, 0); stroke-opacity: 1; fill: rgb(0, 0, 255); fill-opacity: 1;"/><rect class="node-capture" x="-10" y="-7.5" width="40" height="24.239130434782624" style="fill-opacity: 0;"/><g class="node-entered" transform="translate(0 5.619565217391312)"><path class="node-label-guide" id="a679a2_0_node_20" d="M-640,0L-4,0" transform="matrix(1 0 0 1 0 0)"/><text class="node-label" transform="scale(1 1)" style="user-select: none; cursor: default; fill: rgb(42, 63, 95); text-shadow: rgb(255, 255, 255) -1px 1px 1px, rgb(255, 255, 255) 1px 1px 1px, rgb(255, 255, 255) 1px -1px 1px, rgb(255, 255, 255) -1px -1px 1px; font-family: 'Open Sans', verdana, arial, sans-serif; font-size: 12px; fill-opacity: 1;"><textPath class="node-label-text-path" alignment-baseline="middle" xlink:href="#a679a2_0_node_20" startOffset="100%" text-anchor="end" style="fill: rgb(0, 0, 0);">Easier&amp;Faster</textPath></text></g></g><g class="sankey-node" transform="translate(620.000, 394.130)" style="opacity: 1;"><rect class="node-rect" width="20" height="25.869565217391255" style="stroke-width: 0.5; stroke: rgb(0, 0, 0); stroke-opacity: 1; fill: rgb(0, 0, 255); fill-opacity: 1;"/><rect class="node-capture" x="-10" y="-7.5" width="40" height="40.869565217391255" style="fill-opacity: 0;"/><g class="node-entered" transform="translate(0 13.934782608695627)"><path class="node-label-guide" id="a679a2_0_node_21" d="M-640,0L-4,0" transform="matrix(1 0 0 1 0 0)"/><text class="node-label" transform="scale(1 1)" style="user-select: none; cursor: default; fill: rgb(42, 63, 95); text-shadow: rgb(255, 255, 255) -1px 1px 1px, rgb(255, 255, 255) 1px 1px 1px, rgb(255, 255, 255) 1px -1px 1px, rgb(255, 255, 255) -1px -1px 1px; font-family: 'Open Sans', verdana, arial, sans-serif; font-size: 12px; fill-opacity: 1;"><textPath class="node-label-text-path" alignment-baseline="middle" xlink:href="#a679a2_0_node_21" startOffset="100%" text-anchor="end" style="fill: rgb(0, 0, 0);">Standing</textPath></text></g></g><g class="sankey-node" transform="translate(620.000, 312.609)" style="opacity: 1;"><rect class="node-rect" width="20" height="66.52173913043475" style="stroke-width: 0.5; stroke: rgb(0, 0, 0); stroke-opacity: 1; fill: rgb(0, 0, 255); fill-opacity: 1;"/><rect class="node-capture" x="-10" y="-7.5" width="40" height="81.52173913043475" style="fill-opacity: 0;"/><g class="node-entered" transform="translate(0 34.26086956521738)"><path class="node-label-guide" id="a679a2_0_node_22" d="M-640,0L-4,0" transform="matrix(1 0 0 1 0 0)"/><text class="node-label" transform="scale(1 1)" style="user-select: none; cursor: default; fill: rgb(42, 63, 95); text-shadow: rgb(255, 255, 255) -1px 1px 1px, rgb(255, 255, 255) 1px 1px 1px, rgb(255, 255, 255) 1px -1px 1px, rgb(255, 255, 255) -1px -1px 1px; font-family: 'Open Sans', verdana, arial, sans-serif; font-size: 12px; fill-opacity: 1;"><textPath class="node-label-text-path" alignment-baseline="middle" xlink:href="#a679a2_0_node_22" startOffset="100%" text-anchor="end" style="fill: rgb(0, 0, 0);">Sitting</textPath></text></g></g><g class="sankey-node" transform="translate(206.667, 271.266)" style="opacity: 1;"><rect class="node-rect" width="20" height="66.52173913043475" style="stroke-width: 0.5; stroke: rgb(0, 0, 0); stroke-opacity: 1; fill: rgb(0, 0, 255); fill-opacity: 1;"/><rect class="node-capture" x="-10" y="-7.5" width="40" height="81.52173913043475" style="fill-opacity: 0;"/><g class="node-entered" transform="translate(0 34.26086956521738)"><path class="node-label-guide" id="a679a2_0_node_23" d="M24,0L640,0" transform="matrix(1 0 0 1 0 0)"/><text class="node-label" transform="scale(1 1)" style="user-select: none; cursor: default; fill: rgb(42, 63, 95); text-shadow: rgb(255, 255, 255) -1px 1px 1px, rgb(255, 255, 255) 1px 1px 1px, rgb(255, 255, 255) 1px -1px 1px, rgb(255, 255, 255) -1px -1px 1px; font-family: 'Open Sans', verdana, arial, sans-serif; font-size: 12px; fill-opacity: 1;"><textPath class="node-label-text-path" alignment-baseline="middle" xlink:href="#a679a2_0_node_23" startOffset="0%" text-anchor="start" style="fill: rgb(0, 0, 0);">Yes</textPath></text></g></g><g class="sankey-node" transform="translate(620.000, 212.609)" style="opacity: 1;"><rect class="node-rect" width="20" height="85.00000000000009" style="stroke-width: 0.5; stroke: rgb(0, 0, 0); stroke-opacity: 1; fill: rgb(0, 0, 255); fill-opacity: 1;"/><rect class="node-capture" x="-10" y="-7.5" width="40" height="100.00000000000009" style="fill-opacity: 0;"/><g class="node-entered" transform="translate(0 43.50000000000004)"><path class="node-label-guide" id="a679a2_0_node_24" d="M-640,0L-4,0" transform="matrix(1 0 0 1 0 0)"/><text class="node-label" transform="scale(1 1)" style="user-select: none; cursor: default; fill: rgb(42, 63, 95); text-shadow: rgb(255, 255, 255) -1px 1px 1px, rgb(255, 255, 255) 1px 1px 1px, rgb(255, 255, 255) 1px -1px 1px, rgb(255, 255, 255) -1px -1px 1px; font-family: 'Open Sans', verdana, arial, sans-serif; font-size: 12px; fill-opacity: 1;"><textPath class="node-label-text-path" alignment-baseline="middle" xlink:href="#a679a2_0_node_24" startOffset="100%" text-anchor="end" style="fill: rgb(0, 0, 0);">No</textPath></text></g></g><g class="sankey-node" transform="translate(0.000, 212.251)" style="opacity: 1;"><rect class="node-rect" width="20" height="151.5217391304347" style="stroke-width: 0.5; stroke: rgb(0, 0, 0); stroke-opacity: 1; fill: rgb(0, 0, 255); fill-opacity: 1;"/><rect class="node-capture" x="-10" y="-7.5" width="40" height="166.5217391304347" style="fill-opacity: 0;"/><g class="node-entered" transform="translate(0 76.76086956521735)"><path class="node-label-guide" id="a679a2_0_node_26" d="M24,0L640,0" transform="matrix(1 0 0 1 0 0)"/><text class="node-label" transform="scale(1 1)" style="user-select: none; cursor: default; fill: rgb(42, 63, 95); text-shadow: rgb(255, 255, 255) -1px 1px 1px, rgb(255, 255, 255) 1px 1px 1px, rgb(255, 255, 255) 1px -1px 1px, rgb(255, 255, 255) -1px -1px 1px; font-family: 'Open Sans', verdana, arial, sans-serif; font-size: 12px; fill-opacity: 1;"><textPath class="node-label-text-path" alignment-baseline="middle" xlink:href="#a679a2_0_node_26" startOffset="0%" text-anchor="start" style="fill: rgb(0, 0, 0);">Working Now?</textPath></text></g></g></g></g><defs id="topdefs-bad5f8"><g class="clips"/></defs><g class="layer-above"><g class="imagelayer"/><g class="shapelayer"/></g><g class="infolayer"><g class="g-gtitle"/><g class="first-render"/></g></svg>