<svg class="main-svg" xmlns="http://www.w3.org/2000/svg" xmlns:xlink="http://www.w3.org/1999/xlink" width="800" height="600" style="" viewBox="0 0 800 600"><rect x="0" y="0" width="800" height="600" style="fill: rgb(255, 255, 255); fill-opacity: 1;"/><defs id="defs-20b7cb"><g class="clips"/><g class="gradients"/></defs><g class="bglayer"/><g class="layer-below"><g class="imagelayer"/><g class="shapelayer"/></g><g class="cartesianlayer"/><g class="polarlayer"/><g class="ternarylayer"/><g class="geolayer"/><g class="funnelarealayer"/><g class="pielayer"/><g class="treemaplayer"/><g class="sunburstlayer"/><g class="glimages"/><g class="sankey" transform="translate(80,100)matrix(1 0 0 1 0 0)" style="box-sizing: content-box; position: absolute; left: 0px; shape-rendering: geometricprecision; pointer-events: auto;"><g class="sankey-links" style="fill: none;"><path class="sankey-link" d="M20,53.25496000638367C113.33333333333333,53.25496000638367 113.33333333333333,82.50000000000045 206.66666666666666,82.50000000000045L206.66666666666666,215.00000000000045C113.33333333333333,215.00000000000045 113.33333333333333,185.75496000638367 20,185.75496000638367Z" style="stroke: rgb(68, 68, 68); stroke-opacity: 1; fill: rgb(0, 0, 0); fill-opacity: 0.2; stroke-width: 0; opacity: 1;"/><path class="sankey-link" d="M20,185.75496000638367C113.33333333333333,185.75496000638367 113.33333333333333,230.00000000000045 206.66666666666666,230.00000000000045L206.66666666666666,420.00000000000045C113.33333333333333,420.00000000000045 113.33333333333333,375.75496000638367 20,375.75496000638367Z" style="stroke: rgb(68, 68, 68); stroke-opacity: 1; fill: rgb(0, 0, 0); fill-opacity: 0.2; stroke-width: 0; opacity: 1;"/><path class="sankey-link" d="M226.66666666666666,230.00000000000045C320,230.00000000000045 320,174.6306900933453 413.3333333333333,174.6306900933453L413.3333333333333,274.63069009334527C320,274.63069009334527 320,330.00000000000045 226.66666666666666,330.00000000000045Z" style="stroke: rgb(68, 68, 68); stroke-opacity: 1; fill: rgb(0, 0, 0); fill-opacity: 0.2; stroke-width: 0; opacity: 1;"/><path class="sankey-link" d="M226.66666666666666,330.00000000000045C320,330.00000000000045 320,289.63069009334515 413.3333333333333,289.63069009334515L413.3333333333333,357.13069009334515C320,357.13069009334515 320,397.50000000000045 226.66666666666666,397.50000000000045Z" style="stroke: rgb(68, 68, 68); stroke-opacity: 1; fill: rgb(0, 0, 0); fill-opacity: 0.2; stroke-width: 0; opacity: 1;"/><path class="sankey-link" d="M226.66666666666666,397.50000000000045C320,397.50000000000045 320,372.1306900933452 413.3333333333333,372.1306900933452L413.3333333333333,394.6306900933452C320,394.6306900933452 320,420.00000000000045 226.66666666666666,420.00000000000045Z" style="stroke: rgb(68, 68, 68); stroke-opacity: 1; fill: rgb(0, 0, 0); fill-opacity: 0.2; stroke-width: 0; opacity: 1;"/><path class="sankey-link" d="M433.3333333333333,394.6306900933452C526.6666666666666,394.6306900933452 526.6666666666666,367.5 620,367.5L620,377.5C526.6666666666666,377.5 526.6666666666666,404.6306900933452 433.3333333333333,404.6306900933452Z" style="stroke: rgb(68, 68, 68); stroke-opacity: 1; fill: rgb(0, 0, 0); fill-opacity: 0.2; stroke-width: 0; opacity: 1;"/><path class="sankey-link" d="M433.3333333333333,404.6306900933452C526.6666666666666,404.6306900933452 526.6666666666666,392.5 620,392.5L620,400C526.6666666666666,400 526.6666666666666,412.1306900933452 433.3333333333333,412.1306900933452Z" style="stroke: rgb(68, 68, 68); stroke-opacity: 1; fill: rgb(0, 0, 0); fill-opacity: 0.2; stroke-width: 0; opacity: 1;"/><path class="sankey-link" d="M433.3333333333333,412.1306900933452C526.6666666666666,412.1306900933452 526.6666666666666,415 620,415L620,420C526.6666666666666,420 526.6666666666666,417.1306900933452 433.3333333333333,417.1306900933452Z" style="stroke: rgb(68, 68, 68); stroke-opacity: 1; fill: rgb(0, 0, 0); fill-opacity: 0.2; stroke-width: 0; opacity: 1;"/><path class="sankey-link" d="M226.66666666666666,82.50000000000045C423.33333333333337,82.50000000000045 423.33333333333337,-2.4158453015843406e-13 620,-2.4158453015843406e-13L620,107.49999999999976C423.33333333333337,107.49999999999976 423.33333333333337,190.00000000000045 226.66666666666666,190.00000000000045Z" style="stroke: rgb(68, 68, 68); stroke-opacity: 1; fill: rgb(0, 0, 0); fill-opacity: 0.2; stroke-width: 0; opacity: 1;"/><path class="sankey-link" d="M226.66666666666666,190.00000000000045C423.33333333333337,190.00000000000045 423.33333333333337,174.99999999999972 620,174.99999999999972L620,194.99999999999972C423.33333333333337,194.99999999999972 423.33333333333337,210.00000000000045 226.66666666666666,210.00000000000045Z" style="stroke: rgb(68, 68, 68); stroke-opacity: 1; fill: rgb(0, 0, 0); fill-opacity: 0.2; stroke-width: 0; opacity: 1;"/><path class="sankey-link" d="M226.66666666666666,210.00000000000045C423.33333333333337,210.00000000000045 423.33333333333337,292.49999999999983 620,292.49999999999983L620,297.49999999999983C423.33333333333337,297.49999999999983 423.33333333333337,215.00000000000045 226.66666666666666,215.00000000000045Z" style="stroke: rgb(68, 68, 68); stroke-opacity: 1; fill: rgb(0, 0, 0); fill-opacity: 0.2; stroke-width: 0; opacity: 1;"/><path class="sankey-link" d="M433.3333333333333,374.6306900933452C526.6666666666666,374.6306900933452 526.6666666666666,262.4999999999997 620,262.4999999999997L620,277.4999999999997C526.6666666666666,277.4999999999997 526.6666666666666,389.6306900933452 433.3333333333333,389.6306900933452Z" style="stroke: rgb(68, 68, 68); stroke-opacity: 1; fill: rgb(0, 0, 0); fill-opacity: 0.2; stroke-width: 0; opacity: 1;"/><path class="sankey-link" d="M433.3333333333333,389.6306900933452C526.6666666666666,389.6306900933452 526.6666666666666,347.49999999999983 620,347.49999999999983L620,352.49999999999983C526.6666666666666,352.49999999999983 526.6666666666666,394.6306900933452 433.3333333333333,394.6306900933452Z" style="stroke: rgb(68, 68, 68); stroke-opacity: 1; fill: rgb(0, 0, 0); fill-opacity: 0.2; stroke-width: 0; opacity: 1;"/><path class="sankey-link" d="M433.3333333333333,372.1306900933452C526.6666666666666,372.1306900933452 526.6666666666666,157.49999999999977 620,157.49999999999977L620,159.99999999999977C526.6666666666666,159.99999999999977 526.6666666666666,374.6306900933452 433.3333333333333,374.6306900933452Z" style="stroke: rgb(68, 68, 68); stroke-opacity: 1; fill: rgb(0, 0, 0); fill-opacity: 0.2; stroke-width: 0; opacity: 1;"/><path class="sankey-link" d="M433.3333333333333,174.6306900933453C526.6666666666666,174.6306900933453 526.6666666666666,107.49999999999977 620,107.49999999999977L620,157.49999999999977C526.6666666666666,157.49999999999977 526.6666666666666,224.6306900933453 433.3333333333333,224.6306900933453Z" style="stroke: rgb(68, 68, 68); stroke-opacity: 1; fill: rgb(0, 0, 0); fill-opacity: 0.2; stroke-width: 0; opacity: 1;"/><path class="sankey-link" d="M433.3333333333333,224.6306900933453C526.6666666666666,224.6306900933453 526.6666666666666,194.99999999999972 620,194.99999999999972L620,234.99999999999972C526.6666666666666,234.99999999999972 526.6666666666666,264.63069009334527 433.3333333333333,264.63069009334527Z" style="stroke: rgb(68, 68, 68); stroke-opacity: 1; fill: rgb(0, 0, 0); fill-opacity: 0.2; stroke-width: 0; opacity: 1;"/><path class="sankey-link" d="M433.3333333333333,264.63069009334527C526.6666666666666,264.63069009334527 526.6666666666666,297.49999999999983 620,297.49999999999983L620,307.49999999999983C526.6666666666666,307.49999999999983 526.6666666666666,274.63069009334527 433.3333333333333,274.63069009334527Z" style="stroke: rgb(68, 68, 68); stroke-opacity: 1; fill: rgb(0, 0, 0); fill-opacity: 0.2; stroke-width: 0; opacity: 1;"/><path class="sankey-link" d="M433.3333333333333,317.13069009334515C526.6666666666666,317.13069009334515 526.6666666666666,307.49999999999983 620,307.49999999999983L620,347.49999999999983C526.6666666666666,347.49999999999983 526.6666666666666,357.13069009334515 433.3333333333333,357.13069009334515Z" style="stroke: rgb(68, 68, 68); stroke-opacity: 1; fill: rgb(0, 0, 0); fill-opacity: 0.2; stroke-width: 0; opacity: 1;"/><path class="sankey-link" d="M433.3333333333333,289.63069009334515C526.6666666666666,289.63069009334515 526.6666666666666,234.99999999999972 620,234.99999999999972L620,262.4999999999997C526.6666666666666,262.4999999999997 526.6666666666666,317.13069009334515 433.3333333333333,317.13069009334515Z" style="stroke: rgb(68, 68, 68); stroke-opacity: 1; fill: rgb(0, 0, 0); fill-opacity: 0.2; stroke-width: 0; opacity: 1;"/></g><g class="sankey-node-set" style="cursor: move;"><g class="sankey-node" transform="translate(206.667, 82.500)" style="opacity: 1;"><rect class="node-rect" width="20" height="132.5" style="stroke-width: 0.5; stroke: rgb(0, 0, 0); stroke-opacity: 1; fill: rgb(0, 0, 255); fill-opacity: 1;"/><rect class="node-capture" x="-10" y="-7.5" width="40" height="147.5" style="fill-opacity: 0;"/><g class="node-entered" transform="translate(0 67.25)"><path class="node-label-guide" id="fc8f9b_0_node_0" d="M24,0L640,0" transform="matrix(1 0 0 1 0 0)"/><text class="node-label" transform="scale(1 1)" style="user-select: none; cursor: default; fill: rgb(42, 63, 95); text-shadow: rgb(255, 255, 255) -1px 1px 1px, rgb(255, 255, 255) 1px 1px 1px, rgb(255, 255, 255) 1px -1px 1px, rgb(255, 255, 255) -1px -1px 1px; font-family: 'Open Sans', verdana, arial, sans-serif; font-size: 12px; fill-opacity: 1;"><textPath class="node-label-text-path" alignment-baseline="middle" xlink:href="#fc8f9b_0_node_0" startOffset="0%" text-anchor="start" style="fill: rgb(0, 0, 0);">Not at all</textPath></text></g></g><g class="sankey-node" transform="translate(206.667, 230.000)" style="opacity: 1;"><rect class="node-rect" width="20" height="189.99999999999955" style="stroke-width: 0.5; stroke: rgb(0, 0, 0); stroke-opacity: 1; fill: rgb(0, 0, 255); fill-opacity: 1;"/><rect class="node-capture" x="-10" y="-7.5" width="40" height="204.99999999999955" style="fill-opacity: 0;"/><g class="node-entered" transform="translate(0 95.99999999999977)"><path class="node-label-guide" id="fc8f9b_0_node_1" d="M24,0L640,0" transform="matrix(1 0 0 1 0 0)"/><text class="node-label" transform="scale(1 1)" style="user-select: none; cursor: default; fill: rgb(42, 63, 95); text-shadow: rgb(255, 255, 255) -1px 1px 1px, rgb(255, 255, 255) 1px 1px 1px, rgb(255, 255, 255) 1px -1px 1px, rgb(255, 255, 255) -1px -1px 1px; font-family: 'Open Sans', verdana, arial, sans-serif; font-size: 12px; fill-opacity: 1;"><textPath class="node-label-text-path" alignment-baseline="middle" xlink:href="#fc8f9b_0_node_1" startOffset="0%" text-anchor="start" style="fill: rgb(0, 0, 0);">A little, A lot</textPath></text></g></g><g class="sankey-node" transform="translate(413.333, 174.631)" style="opacity: 1;"><rect class="node-rect" width="20" height="99.99999999999986" style="stroke-width: 0.5; stroke: rgb(0, 0, 0); stroke-opacity: 1; fill: rgb(0, 0, 255); fill-opacity: 1;"/><rect class="node-capture" x="-10" y="-7.5" width="40" height="114.99999999999986" style="fill-opacity: 0;"/><g class="node-entered" transform="translate(0 50.99999999999993)"><path class="node-label-guide" id="fc8f9b_0_node_3" d="M24,0L640,0" transform="matrix(1 0 0 1 0 0)"/><text class="node-label" transform="scale(1 1)" style="user-select: none; cursor: default; fill: rgb(42, 63, 95); text-shadow: rgb(255, 255, 255) -1px 1px 1px, rgb(255, 255, 255) 1px 1px 1px, rgb(255, 255, 255) 1px -1px 1px, rgb(255, 255, 255) -1px -1px 1px; font-family: 'Open Sans', verdana, arial, sans-serif; font-size: 12px; fill-opacity: 1;"><textPath class="node-label-text-path" alignment-baseline="middle" xlink:href="#fc8f9b_0_node_3" startOffset="0%" text-anchor="start" style="fill: rgb(0, 0, 0);">Surface</textPath></text></g></g><g class="sankey-node" transform="translate(413.333, 289.631)" style="opacity: 1;"><rect class="node-rect" width="20" height="67.50000000000006" style="stroke-width: 0.5; stroke: rgb(0, 0, 0); stroke-opacity: 1; fill: rgb(0, 0, 255); fill-opacity: 1;"/><rect class="node-capture" x="-10" y="-7.5" width="40" height="82.50000000000006" style="fill-opacity: 0;"/><g class="node-entered" transform="translate(0 34.75000000000003)"><path class="node-label-guide" id="fc8f9b_0_node_4" d="M24,0L640,0" transform="matrix(1 0 0 1 0 0)"/><text class="node-label" transform="scale(1 1)" style="user-select: none; cursor: default; fill: rgb(42, 63, 95); text-shadow: rgb(255, 255, 255) -1px 1px 1px, rgb(255, 255, 255) 1px 1px 1px, rgb(255, 255, 255) 1px -1px 1px, rgb(255, 255, 255) -1px -1px 1px; font-family: 'Open Sans', verdana, arial, sans-serif; font-size: 12px; fill-opacity: 1;"><textPath class="node-label-text-path" alignment-baseline="middle" xlink:href="#fc8f9b_0_node_4" startOffset="0%" text-anchor="start" style="fill: rgb(0, 0, 0);">Ventilation</textPath></text></g></g><g class="sankey-node" transform="translate(413.333, 372.131)" style="opacity: 1;"><rect class="node-rect" width="20" height="45" style="stroke-width: 0.5; stroke: rgb(0, 0, 0); stroke-opacity: 1; fill: rgb(0, 0, 255); fill-opacity: 1;"/><rect class="node-capture" x="-10" y="-7.5" width="40" height="60" style="fill-opacity: 0;"/><g class="node-entered" transform="translate(0 23.5)"><path class="node-label-guide" id="fc8f9b_0_node_5" d="M24,0L640,0" transform="matrix(1 0 0 1 0 0)"/><text class="node-label" transform="scale(1 1)" style="user-select: none; cursor: default; fill: rgb(42, 63, 95); text-shadow: rgb(255, 255, 255) -1px 1px 1px, rgb(255, 255, 255) 1px 1px 1px, rgb(255, 255, 255) 1px -1px 1px, rgb(255, 255, 255) -1px -1px 1px; font-family: 'Open Sans', verdana, arial, sans-serif; font-size: 12px; fill-opacity: 1;"><textPath class="node-label-text-path" alignment-baseline="middle" xlink:href="#fc8f9b_0_node_5" startOffset="0%" text-anchor="start" style="fill: rgb(0, 0, 0);">People</textPath></text></g></g><g class="sankey-node" transform="translate(620.000, 367.500)" style="opacity: 1;"><rect class="node-rect" width="20" height="10" style="stroke-width: 0.5; stroke: rgb(0, 0, 0); stroke-opacity: 1; fill: rgb(0, 0, 255); fill-opacity: 1;"/><rect class="node-capture" x="-10" y="-7.5" width="40" height="25" style="fill-opacity: 0;"/><g class="node-entered" transform="translate(0 6)"><path class="node-label-guide" id="fc8f9b_0_node_6" d="M-640,0L-4,0" transform="matrix(1 0 0 1 0 0)"/><text class="node-label" transform="scale(1 1)" style="user-select: none; cursor: default; fill: rgb(42, 63, 95); text-shadow: rgb(255, 255, 255) -1px 1px 1px, rgb(255, 255, 255) 1px 1px 1px, rgb(255, 255, 255) 1px -1px 1px, rgb(255, 255, 255) -1px -1px 1px; font-family: 'Open Sans', verdana, arial, sans-serif; font-size: 12px; fill-opacity: 1;"><textPath class="node-label-text-path" alignment-baseline="middle" xlink:href="#fc8f9b_0_node_6" startOffset="100%" text-anchor="end" style="fill: rgb(0, 0, 0);">Density</textPath></text></g></g><g class="sankey-node" transform="translate(620.000, 392.500)" style="opacity: 1;"><rect class="node-rect" width="20" height="7.5" style="stroke-width: 0.5; stroke: rgb(0, 0, 0); stroke-opacity: 1; fill: rgb(0, 0, 255); fill-opacity: 1;"/><rect class="node-capture" x="-10" y="-7.5" width="40" height="22.5" style="fill-opacity: 0;"/><g class="node-entered" transform="translate(0 4.75)"><path class="node-label-guide" id="fc8f9b_0_node_7" d="M-640,0L-4,0" transform="matrix(1 0 0 1 0 0)"/><text class="node-label" transform="scale(1 1)" style="user-select: none; cursor: default; fill: rgb(42, 63, 95); text-shadow: rgb(255, 255, 255) -1px 1px 1px, rgb(255, 255, 255) 1px 1px 1px, rgb(255, 255, 255) 1px -1px 1px, rgb(255, 255, 255) -1px -1px 1px; font-family: 'Open Sans', verdana, arial, sans-serif; font-size: 12px; fill-opacity: 1;"><textPath class="node-label-text-path" alignment-baseline="middle" xlink:href="#fc8f9b_0_node_7" startOffset="100%" text-anchor="end" style="fill: rgb(0, 0, 0);">Proximity</textPath></text></g></g><g class="sankey-node" transform="translate(620.000, 415.000)" style="opacity: 1;"><rect class="node-rect" width="20" height="5" style="stroke-width: 0.5; stroke: rgb(0, 0, 0); stroke-opacity: 1; fill: rgb(0, 0, 255); fill-opacity: 1;"/><rect class="node-capture" x="-10" y="-7.5" width="40" height="20" style="fill-opacity: 0;"/><g class="node-entered" transform="translate(0 3.5)"><path class="node-label-guide" id="fc8f9b_0_node_8" d="M-640,0L-4,0" transform="matrix(1 0 0 1 0 0)"/><text class="node-label" transform="scale(1 1)" style="user-select: none; cursor: default; fill: rgb(42, 63, 95); text-shadow: rgb(255, 255, 255) -1px 1px 1px, rgb(255, 255, 255) 1px 1px 1px, rgb(255, 255, 255) 1px -1px 1px, rgb(255, 255, 255) -1px -1px 1px; font-family: 'Open Sans', verdana, arial, sans-serif; font-size: 12px; fill-opacity: 1;"><textPath class="node-label-text-path" alignment-baseline="middle" xlink:href="#fc8f9b_0_node_8" startOffset="100%" text-anchor="end" style="fill: rgb(0, 0, 0);">Both</textPath></text></g></g><g class="sankey-node" transform="translate(620.000, -0.000)" style="opacity: 1;"><rect class="node-rect" width="20" height="159.99999999999994" style="stroke-width: 0.5; stroke: rgb(0, 0, 0); stroke-opacity: 1; fill: rgb(0, 0, 255); fill-opacity: 1;"/><rect class="node-capture" x="-10" y="-7.5" width="40" height="174.99999999999994" style="fill-opacity: 0;"/><g class="node-entered" transform="translate(0 80.99999999999997)"><path class="node-label-guide" id="fc8f9b_0_node_9" d="M-640,0L-4,0" transform="matrix(1 0 0 1 0 0)"/><text class="node-label" transform="scale(1 1)" style="user-select: none; cursor: default; fill: rgb(42, 63, 95); text-shadow: rgb(255, 255, 255) -1px 1px 1px, rgb(255, 255, 255) 1px 1px 1px, rgb(255, 255, 255) 1px -1px 1px, rgb(255, 255, 255) -1px -1px 1px; font-family: 'Open Sans', verdana, arial, sans-serif; font-size: 12px; fill-opacity: 1;"><textPath class="node-label-text-path" alignment-baseline="middle" xlink:href="#fc8f9b_0_node_9" startOffset="100%" text-anchor="end" style="fill: rgb(0, 0, 0);">0 pax</textPath></text></g></g><g class="sankey-node" transform="translate(620.000, 175.000)" style="opacity: 1;"><rect class="node-rect" width="20" height="102.50000000000011" style="stroke-width: 0.5; stroke: rgb(0, 0, 0); stroke-opacity: 1; fill: rgb(0, 0, 255); fill-opacity: 1;"/><rect class="node-capture" x="-10" y="-7.5" width="40" height="117.50000000000011" style="fill-opacity: 0;"/><g class="node-entered" transform="translate(0 52.25000000000006)"><path class="node-label-guide" id="fc8f9b_0_node_10" d="M-640,0L-4,0" transform="matrix(1 0 0 1 0 0)"/><text class="node-label" transform="scale(1 1)" style="user-select: none; cursor: default; fill: rgb(42, 63, 95); text-shadow: rgb(255, 255, 255) -1px 1px 1px, rgb(255, 255, 255) 1px 1px 1px, rgb(255, 255, 255) 1px -1px 1px, rgb(255, 255, 255) -1px -1px 1px; font-family: 'Open Sans', verdana, arial, sans-serif; font-size: 12px; fill-opacity: 1;"><textPath class="node-label-text-path" alignment-baseline="middle" xlink:href="#fc8f9b_0_node_10" startOffset="100%" text-anchor="end" style="fill: rgb(0, 0, 0);">1-4 pax</textPath></text></g></g><g class="sankey-node" transform="translate(620.000, 292.500)" style="opacity: 1;"><rect class="node-rect" width="20" height="60.00000000000017" style="stroke-width: 0.5; stroke: rgb(0, 0, 0); stroke-opacity: 1; fill: rgb(0, 0, 255); fill-opacity: 1;"/><rect class="node-capture" x="-10" y="-7.5" width="40" height="75.00000000000017" style="fill-opacity: 0;"/><g class="node-entered" transform="translate(0 31.000000000000085)"><path class="node-label-guide" id="fc8f9b_0_node_11" d="M-640,0L-4,0" transform="matrix(1 0 0 1 0 0)"/><text class="node-label" transform="scale(1 1)" style="user-select: none; cursor: default; fill: rgb(42, 63, 95); text-shadow: rgb(255, 255, 255) -1px 1px 1px, rgb(255, 255, 255) 1px 1px 1px, rgb(255, 255, 255) 1px -1px 1px, rgb(255, 255, 255) -1px -1px 1px; font-family: 'Open Sans', verdana, arial, sans-serif; font-size: 12px; fill-opacity: 1;"><textPath class="node-label-text-path" alignment-baseline="middle" xlink:href="#fc8f9b_0_node_11" startOffset="100%" text-anchor="end" style="fill: rgb(0, 0, 0);">5+ pax</textPath></text></g></g><g class="sankey-node" transform="translate(0.000, 53.255)" style="opacity: 1;"><rect class="node-rect" width="20" height="322.5000000000001" style="stroke-width: 0.5; stroke: rgb(0, 0, 0); stroke-opacity: 1; fill: rgb(0, 0, 255); fill-opacity: 1;"/><rect class="node-capture" x="-10" y="-7.5" width="40" height="337.5000000000001" style="fill-opacity: 0;"/><g class="node-entered" transform="translate(0 162.25000000000006)"><path class="node-label-guide" id="fc8f9b_0_node_12" d="M24,0L640,0" transform="matrix(1 0 0 1 0 0)"/><text class="node-label" transform="scale(1 1)" style="user-select: none; cursor: default; fill: rgb(42, 63, 95); text-shadow: rgb(255, 255, 255) -1px 1px 1px, rgb(255, 255, 255) 1px 1px 1px, rgb(255, 255, 255) 1px -1px 1px, rgb(255, 255, 255) -1px -1px 1px; font-family: 'Open Sans', verdana, arial, sans-serif; font-size: 12px; fill-opacity: 1;"><textPath class="node-label-text-path" alignment-baseline="middle" xlink:href="#fc8f9b_0_node_12" startOffset="0%" text-anchor="start" style="fill: rgb(0, 0, 0);">Surroundings increase risk ? </textPath></text></g></g></g></g><defs id="topdefs-20b7cb"><g class="clips"/></defs><g class="layer-above"><g class="imagelayer"/><g class="shapelayer"/></g><g class="infolayer"><g class="g-gtitle"/><g class="first-render"/></g></svg>